<?xml version="1.0" encoding="UTF-8"?>
<svg version="1.1" xmlns="http://www.w3.org/2000/svg" width="408" height="414">
<path d="M0 0 C134.64 0 269.28 0 408 0 C408 136.62 408 273.24 408 414 C273.36 414 138.72 414 0 414 C0 277.38 0 140.76 0 0 Z " fill="#FCFCFC" transform="translate(0,0)"/>
<path d="M0 0 C0.33 0 0.66 0 1 0 C1.18062988 1.25619141 1.36125977 2.51238281 1.54736328 3.80664062 C2.39822941 9.70565332 3.25948605 15.60311984 4.125 21.5 C4.2810672 22.5642218 4.4371344 23.6284436 4.59793091 24.72491455 C6.79356472 39.62822724 9.20709061 54.45224749 12.22119141 69.21289062 C13.50294924 75.61904422 14.28688006 81.46473239 14 88 C15.65 88 17.3 88 19 88 C19 90.97 19 93.94 19 97 C17.515 97.495 17.515 97.495 16 98 C15.67 99.32 15.34 100.64 15 102 C10.05 102.99 10.05 102.99 5 104 C5 104.99 5 105.98 5 107 C13.58 107 22.16 107 31 107 C30.34 105.35 29.68 103.7 29 102 C29 101.01 29 100.02 29 99 C28.34 99 27.68 99 27 99 C26.67 95.37 26.34 91.74 26 88 C27.32 88 28.64 88 30 88 C29.67 85.69 29.34 83.38 29 81 C58.37 81 87.74 81 118 81 C118 113.01 118 145.02 118 178 C-16.64 178 -151.28 178 -290 178 C-290 145.99 -290 113.98 -290 81 C-266.57 81 -243.14 81 -219 81 C-219 81.99 -219 82.98 -219 84 C-216.8940354 85.55129505 -214.87244957 86.87648775 -212.625 88.1875 C-212.02171875 88.55552734 -211.4184375 88.92355469 -210.796875 89.30273438 C-207.62048244 91.34247987 -207.62048244 91.34247987 -204 92 C-204.33 91.46375 -204.66 90.9275 -205 90.375 C-206.23696723 87.43720283 -206.21056341 85.15845117 -206 82 C-205 81 -205 81 -201.67358398 80.88647461 C-200.19774444 80.88663371 -198.72189931 80.89232686 -197.24609375 80.90234375 C-196.47064713 80.9037587 -195.6952005 80.90517365 -194.89625549 80.90663147 C-192.40996506 80.91224655 -189.9237634 80.92480154 -187.4375 80.9375 C-185.75586067 80.94251306 -184.07421994 80.9470763 -182.39257812 80.95117188 C-178.26168434 80.96222087 -174.13085724 80.97949555 -170 81 C-169.92377142 84.96388638 -170.0318352 88.1273408 -171 92 C-167.37 92 -163.74 92 -160 92 C-160.0309375 89.5559375 -160.0309375 89.5559375 -160.0625 87.0625 C-160.08386068 85.37500659 -160.07205511 83.68608966 -160 82 C-159 81 -159 81 -156.4375 80.9375 C-155.633125 80.958125 -154.82875 80.97875 -154 81 C-153.67 80.34 -153.34 79.68 -153 79 C-153 79.66 -153 80.32 -153 81 C-108.78 81 -64.56 81 -19 81 C-19 83.31 -19 85.62 -19 88 C-17.35 88 -15.7 88 -14 88 C-13.67 91.63 -13.34 95.26 -13 99 C-18.18082051 102.34594658 -21.84777564 103.56826496 -28 104 C-28 104.99 -28 105.98 -28 107 C-19.42 107 -10.84 107 -2 107 C-2.66 105.35 -3.32 103.7 -4 102 C-4 101.01 -4 100.02 -4 99 C-4.66 99 -5.32 99 -6 99 C-6.33 95.37 -6.66 91.74 -7 88 C-5.68 88 -4.36 88 -3 88 C-3.16291031 87.30820145 -3.32582062 86.61640289 -3.4936676 85.90364075 C-5.21880891 76.01055345 -3.91580697 65.31585783 -3.37890625 55.33203125 C-3.31468979 54.09055832 -3.25047333 52.84908539 -3.18431091 51.56999207 C-3.04900089 48.96917826 -2.91194341 46.36845482 -2.77319336 43.76782227 C-2.56248558 39.81222931 -2.35796478 35.85635167 -2.15429688 31.90039062 C-2.02119769 29.35675174 -1.88774619 26.81313126 -1.75390625 24.26953125 C-1.6934462 23.10154495 -1.63298615 21.93355865 -1.57069397 20.73017883 C-1.19805045 13.80253772 -0.68424148 6.90394708 0 0 Z " fill="#FDFDFD" transform="translate(290,236)"/>
<path d="M0 0 C6.46434522 1.20266888 13.25232946 2.59350613 17.625 7.8125 C18.98097717 11.2423246 18.61059366 12.94963979 17.6875 16.5 C17.31625 18.3253125 17.31625 18.3253125 16.9375 20.1875 C15.6875 23.5 15.6875 23.5 13.0625 24.8125 C10.45968145 26.24292963 10.45968145 26.24292963 10.29296875 28.7578125 C10.10057783 35.01517703 10.10057783 35.01517703 12.6875 40.5 C15.59535136 41.16491483 15.59535136 41.16491483 18.9375 41.3125 C26.31515432 42.25605888 26.31515432 42.25605888 29.25 45.5625 C32.77013107 50.65658695 36.79473928 57.13823048 35.6875 63.5 C33.88655525 65.50267395 32.23633673 67.11352605 30.1875 68.8125 C29.66285156 69.26689453 29.13820313 69.72128906 28.59765625 70.18945312 C27.30515847 71.3057012 25.99771858 72.40460622 24.6875 73.5 C24.0275 73.17 23.3675 72.84 22.6875 72.5 C22.7189209 73.28648926 22.7503418 74.07297852 22.78271484 74.88330078 C22.90781056 78.46357195 22.98559411 82.04338302 23.0625 85.625 C23.11277344 86.8625 23.16304687 88.1 23.21484375 89.375 C23.38077705 99.6628649 23.38077705 99.6628649 20.2265625 103.3046875 C16.50500711 106.24937522 12.29840989 106.47950707 7.6875 106.5 C7.71779297 107.1077124 7.74808594 107.7154248 7.77929688 108.34155273 C8.07510646 114.38118806 8.33618991 120.42140953 8.56738281 126.46386719 C8.64252801 128.3632689 8.72415298 130.26243794 8.81542969 132.16113281 C8.92313241 134.46155259 8.99791243 136.76052613 9.0625 139.0625 C9.11148438 140.36316406 9.16046875 141.66382813 9.2109375 143.00390625 C8.67979959 146.55143183 7.88500383 148.70194461 5.3717804 151.31138611 C-2.10524636 156.58800032 -16.00226902 155.34638447 -24.86328125 155.9375 C-26.68527577 156.06380824 -28.50723048 156.19069172 -30.32914734 156.31811523 C-35.12290032 156.65184261 -39.91714915 156.97782356 -44.71154785 157.30212402 C-49.48705603 157.62646721 -54.26205328 157.958143 -59.03710938 158.2890625 C-60.91502577 158.41866504 -62.79294527 158.54822256 -64.67086792 158.67773438 C-68.36136999 158.93236617 -72.05171412 159.18914766 -75.74197388 159.44726562 C-83.24665605 159.96919402 -90.7495797 160.48557957 -98.26230717 160.87825012 C-100.36459094 160.98829439 -102.46637236 161.10527711 -104.56816101 161.22436523 C-107.06114658 161.36238301 -109.55503463 161.48527487 -112.04963684 161.59008789 C-113.12533432 161.65188232 -114.2010318 161.71367676 -115.30932617 161.77734375 C-116.2357341 161.82109131 -117.16214203 161.86483887 -118.11662292 161.90991211 C-120.467713 162.27368888 -120.467713 162.27368888 -121.47846985 164.37475586 C-121.7536998 165.07608643 -122.02892975 165.77741699 -122.3125 166.5 C-123.95843781 168.41158834 -125.65054675 170.28392905 -127.375 172.125 C-130.72783647 175.54209753 -130.72783647 175.54209753 -133.3125 179.5 C-134.3025 179.5 -135.2925 179.5 -136.3125 179.5 C-136.37308594 178.50097656 -136.43367188 177.50195312 -136.49609375 176.47265625 C-136.57988281 175.18230469 -136.66367188 173.89195312 -136.75 172.5625 C-136.83121094 171.27472656 -136.91242188 169.98695313 -136.99609375 168.66015625 C-136.96169188 165.63976043 -136.96169188 165.63976043 -138.3125 164.5 C-140.49542774 164.26518307 -142.68453174 164.08636677 -144.875 163.9375 C-146.07253906 163.85371094 -147.27007812 163.76992187 -148.50390625 163.68359375 C-149.43074219 163.62300781 -150.35757813 163.56242188 -151.3125 163.5 C-151.29155273 164.17015137 -151.27060547 164.84030273 -151.24902344 165.53076172 C-150.61053035 189.52274555 -153.27501729 212.63986214 -156.94970703 236.32080078 C-157.38388016 239.58176495 -157.38388016 239.58176495 -157.30419922 243.21435547 C-157.3125 246.5 -157.3125 246.5 -158.3125 249.5 C-161.9425 249.5 -165.5725 249.5 -169.3125 249.5 C-169.31027939 248.49490387 -169.30805878 247.48980774 -169.30577087 246.45425415 C-169.2854394 236.95074177 -169.27047982 227.44723385 -169.26068783 217.94370461 C-169.25548434 213.05865187 -169.24843302 208.17361679 -169.23706055 203.28857422 C-169.22614122 198.56828006 -169.2202041 193.84800281 -169.21762276 189.12769699 C-169.21578474 187.33291737 -169.21219574 185.5381386 -169.20676994 183.74336624 C-169.18119833 174.92867012 -169.17939878 166.25899007 -170.3125 157.5 C-170.42959824 158.15025146 -170.54669647 158.80050293 -170.66734314 159.47045898 C-175.05994829 183.6168581 -184.64807644 207.00336466 -198.3125 227.5 C-198.69749891 229.15549531 -199.04043135 230.8222433 -199.3125 232.5 C-202.95410808 233.71386936 -203.64415469 233.1674695 -207 231.5625 C-207.80824219 231.18222656 -208.61648437 230.80195313 -209.44921875 230.41015625 C-210.06410156 230.10980469 -210.67898437 229.80945313 -211.3125 229.5 C-211.3125 227.85 -211.3125 226.2 -211.3125 224.5 C-210.6525 224.17 -209.9925 223.84 -209.3125 223.5 C-208.32827333 221.38810798 -208.32827333 221.38810798 -207.46484375 218.77172852 C-207.11107666 217.76300186 -206.75730957 216.75427521 -206.39282227 215.71498108 C-206.01569092 214.61407639 -205.63855957 213.51317169 -205.25 212.37890625 C-204.85804443 211.2498436 -204.46608887 210.12078094 -204.06225586 208.95750427 C-203.23158514 206.55860769 -202.40462842 204.1584224 -201.58105469 201.75708008 C-200.32739179 198.10587134 -199.05917341 194.45996797 -197.7890625 190.81445312 C-196.9834877 188.48207711 -196.17877331 186.1494037 -195.375 183.81640625 C-194.99786865 182.73371964 -194.6207373 181.65103302 -194.23217773 180.53553772 C-188.95788661 165.07353768 -188.22907146 149.98758944 -187.75 133.75 C-187.70666442 132.35936611 -187.66304622 130.96874101 -187.61914062 129.578125 C-187.51416251 126.21882523 -187.41200417 122.85946561 -187.3125 119.5 C-186.88324219 120.14453125 -186.45398438 120.7890625 -186.01171875 121.453125 C-184.39549547 123.81836775 -184.39549547 123.81836775 -181.125 124.25 C-180.196875 124.3325 -179.26875 124.415 -178.3125 124.5 C-180.06165849 119.26273917 -180.06165849 119.26273917 -184.0625 115.75 C-186.3125 113.5 -186.3125 113.5 -186.4453125 110.8828125 C-185.8125 103.5 -185.8125 103.5 -184.3125 100.5 C-183.41088453 88.71528559 -183.41088453 88.71528559 -186.3125 77.5 C-188.76002023 75.09743423 -191.367761 73.24629871 -194.3125 71.5 C-193.80610437 67.14499757 -193.26755325 63.82443491 -190.3125 60.5 C-186.36499814 59.07860474 -182.49653866 58.5 -178.3125 58.5 C-176.9381709 59.79103643 -175.60353643 61.1256709 -174.3125 62.5 C-172.06737738 63.62256131 -170.79793351 63.63413762 -168.3125 63.625 C-167.61125 63.62757813 -166.91 63.63015625 -166.1875 63.6328125 C-164.22096225 63.61377236 -164.22096225 63.61377236 -162.3125 62.5 C-161.9825 61.51 -161.6525 60.52 -161.3125 59.5 C-154.09445489 59.01879699 -154.09445489 59.01879699 -150.875 61 C-148.67609275 64.51825161 -148.58751581 67.37476285 -148.3125 71.5 C-147.24 71.335 -146.1675 71.17 -145.0625 71 C-139.48991358 70.28839274 -133.91986426 70.41588954 -128.3125 70.5 C-130.61265944 77.07188413 -135.70545965 80.63593765 -141.3125 84.5 C-142.7975 84.995 -142.7975 84.995 -144.3125 85.5 C-145.9625 81.87 -147.6125 78.24 -149.3125 74.5 C-150.3025 74.83 -151.2925 75.16 -152.3125 75.5 C-152.02822583 77.08467728 -151.73475182 78.6677057 -151.4375 80.25 C-151.27507812 81.13171875 -151.11265625 82.0134375 -150.9453125 82.921875 C-150.33463794 85.4098084 -149.67283043 87.33318797 -148.3125 89.5 C-145.64578612 90.86434855 -145.64578612 90.86434855 -142.3125 90.5 C-137.15869785 87.76910085 -133.32447572 83.6450068 -129.6875 79.16796875 C-127.72084293 76.78227963 -125.52664601 74.65430423 -123.3125 72.5 C-122.86233017 71.97253677 -122.41216034 71.44507355 -121.948349 70.90162659 C-119.85250204 69.10586499 -118.56136136 69.02422572 -115.82641602 68.82397461 C-114.91502869 68.75051315 -114.00364136 68.6770517 -113.06463623 68.60136414 C-112.07522034 68.53568741 -111.08580444 68.47001068 -110.06640625 68.40234375 C-109.03582092 68.32309158 -108.0052356 68.24383942 -106.94342041 68.16218567 C-103.58811824 67.90739978 -100.23176756 67.67211775 -96.875 67.4375 C-94.57828609 67.26772138 -92.28165478 67.09682157 -89.98510742 66.92480469 C-85.46779798 66.58862778 -80.95003715 66.26019396 -76.43164062 65.93896484 C-71.38503861 65.57953269 -66.34060061 65.19829531 -61.296875 64.80078125 C-49.95336889 63.92048444 -38.6946309 63.15156742 -27.3125 63.5 C-27.9725 60.2 -28.6325 56.9 -29.3125 53.5 C-21.16557033 46.18438969 -15.18387466 43.16662202 -4.32421875 41.30859375 C-1.0204223 40.7766214 -1.0204223 40.7766214 0.6875 37.5 C0.85449232 34.37478167 0.85449232 34.37478167 0.6875 31.5 C0.11 31.4175 -0.4675 31.335 -1.0625 31.25 C-3.95979825 30.28423392 -5.31520757 28.77278104 -7.3125 26.5 C-10.16144804 20.80210392 -8.03766415 12.34801408 -6.3125 6.5 C-4.91239651 3.24814673 -3.67979893 0.7956322 0 0 Z " fill="#0D5D59" transform="translate(288.3125,78.5)"/>
<path d="M0 0 C7.56137109 20.0106285 7.56137109 20.0106285 3.9609375 28.4296875 C1.32114503 32.80967836 -1.25262666 35.18533193 -5.6796875 37.671875 C-8.96977984 40.20245709 -9.88913553 41.47715506 -10.76098633 45.58886719 C-11.08797435 50.23083238 -10.8824381 54.85621812 -10.6875 59.5 C-10.64620406 61.24683284 -10.60825972 62.9937478 -10.57348633 64.74072266 C-10.46869328 69.27648808 -10.3028801 73.80756969 -10.11181641 78.3404541 C-10.00471393 80.88787958 -9.90720007 83.43548548 -9.8125 85.98339844 C-9.030613 106.4697669 -7.59275938 126.91612219 -5.96557617 147.35107422 C-4.0928657 171.18573139 -4.0928657 171.18573139 -6 175 C-5.01 175 -4.02 175 -3 175 C-3 176.65 -3 178.3 -3 180 C-4.32 180 -5.64 180 -7 180 C-6.67 180.66 -6.34 181.32 -6 182 C-5.93049459 183.54023996 -5.91547643 185.08334988 -5.9375 186.625 C-5.94652344 187.44226563 -5.95554687 188.25953125 -5.96484375 189.1015625 C-5.98224609 190.04128906 -5.98224609 190.04128906 -6 191 C-5.34 191 -4.68 191 -4 191 C-3.34 193.64 -2.68 196.28 -2 199 C-10.58 199 -19.16 199 -28 199 C-28 198.01 -28 197.02 -28 196 C-27.28972656 195.82984375 -26.57945312 195.6596875 -25.84765625 195.484375 C-24.92855469 195.24203125 -24.00945312 194.9996875 -23.0625 194.75 C-22.14597656 194.51796875 -21.22945312 194.2859375 -20.28515625 194.046875 C-19.53105469 193.70140625 -18.77695312 193.3559375 -18 193 C-17.25932353 190.99656798 -17.25932353 190.99656798 -17 189 C-16.34 188.67 -15.68 188.34 -15 188 C-14.53476937 186.10466658 -14.53476937 186.10466658 -14.375 183.9375 C-14.189375 181.9884375 -14.189375 181.9884375 -14 180 C-15.65 180 -17.3 180 -19 180 C-19.15782959 178.92298828 -19.15782959 178.92298828 -19.31884766 177.82421875 C-20.31231737 171.19696073 -21.40446401 164.59598723 -22.5859375 158 C-22.72887741 157.20118408 -22.87181732 156.40236816 -23.01908875 155.5793457 C-23.31769408 153.91128938 -23.61633468 152.24323937 -23.91500854 150.57519531 C-27.03718599 133.09613862 -29.77448277 115.61744047 -32 98 C-32.78514208 101.54962294 -33.19625578 104.96167913 -33.38891602 108.59033203 C-33.44890274 109.68983185 -33.50888947 110.78933167 -33.57069397 111.92214966 C-33.63115402 113.1054184 -33.69161407 114.28868713 -33.75390625 115.5078125 C-33.81907944 116.74304657 -33.88425262 117.97828064 -33.95140076 119.25094604 C-34.1235534 122.54130518 -34.29197071 125.83183213 -34.45935059 129.12243652 C-34.62822128 132.40092624 -34.80637593 135.67892015 -34.98242188 138.95703125 C-35.69945866 152.65051873 -36.22311975 166.28729704 -36 180 C-36.99 180.33 -37.98 180.66 -39 181 C-39 184.3 -39 187.6 -39 191 C-38.34 191 -37.68 191 -37 191 C-36.34 193.64 -35.68 196.28 -35 199 C-43.58 199 -52.16 199 -61 199 C-61 198.01 -61 197.02 -61 196 C-60.33613281 195.80664062 -59.67226563 195.61328125 -58.98828125 195.4140625 C-52.40210691 193.47248648 -52.40210691 193.47248648 -46 191 C-46.165 190.484375 -46.33 189.96875 -46.5 189.4375 C-47.15049 186.26636124 -47.0620734 183.22781666 -47 180 C-48.65 180 -50.3 180 -52 180 C-52 177.69 -52 175.38 -52 173 C-98.2 173 -144.4 173 -192 173 C-190.88221906 158.4688478 -190.88221906 158.4688478 -190.0625 152.27734375 C-189.88754632 150.91335108 -189.71342494 149.54925145 -189.54003906 148.18505859 C-189.4514563 147.49144226 -189.36287354 146.79782593 -189.27160645 146.08319092 C-187.24100762 130.04146022 -186.22562066 114.17855725 -186 98 C-183.87527424 97.94613371 -181.75016348 97.90726929 -179.625 97.875 C-177.84996094 97.84019531 -177.84996094 97.84019531 -176.0390625 97.8046875 C-173 98 -173 98 -171 100 C-170.8046875 103.2578125 -170.8046875 103.2578125 -170.875 107.125 C-170.89304688 108.40632813 -170.91109375 109.68765625 -170.9296875 111.0078125 C-170.95289063 111.99523437 -170.97609375 112.98265625 -171 114 C-170.01 114 -169.02 114 -168 114 C-167.77183594 113.45472656 -167.54367188 112.90945313 -167.30859375 112.34765625 C-165.6077918 109.29636677 -163.43509844 106.998234 -161.0625 104.4375 C-159.74958984 103.01244141 -159.74958984 103.01244141 -158.41015625 101.55859375 C-157.61480469 100.71425781 -156.81945312 99.86992187 -156 99 C-155.53364702 98.46487321 -155.06729404 97.92974642 -154.58680916 97.37840366 C-151.76305588 94.92551143 -147.92942872 95.26950385 -144.33544922 95.04858398 C-143.44857925 94.9830835 -142.56170929 94.91758301 -141.64796448 94.85009766 C-138.70097764 94.63570116 -135.75302626 94.44094022 -132.8046875 94.24609375 C-130.73885434 94.09946728 -128.67311003 93.95158422 -126.60745239 93.80250549 C-121.14337636 93.41141871 -115.67829488 93.0367471 -110.21282959 92.66564941 C-104.74801051 92.29211469 -99.28419681 91.90450567 -93.8203125 91.51757812 C-91.68565176 91.36694944 -89.55098788 91.21636521 -87.4163208 91.06582642 C-84.27350196 90.84404735 -81.13069911 90.62205075 -77.98793793 90.39945602 C-74.95911452 90.18493439 -71.93025353 89.97095528 -68.90136719 89.75732422 C-67.94715252 89.68992727 -66.99293785 89.62253033 -66.00980759 89.55309105 C-60.52256223 89.16822446 -55.03463746 88.81288996 -49.54394531 88.48095703 C-47.28189644 88.33242678 -45.01985164 88.18383453 -42.7578125 88.03515625 C-41.79463104 87.98644882 -40.83144958 87.93774139 -39.83908081 87.88755798 C-34.70536915 87.53163181 -31.70491555 86.9092001 -28 83 C-26.52095926 80.04191851 -26.85459138 77.05413136 -26.875 73.8125 C-26.8762085 73.08160156 -26.87741699 72.35070312 -26.87866211 71.59765625 C-26.93071664 63.85834836 -27.30885955 56.13241025 -27.73193359 48.40551758 C-27.78043457 47.45700928 -27.82893555 46.50850098 -27.87890625 45.53125 C-27.9260376 44.68111328 -27.97316895 43.83097656 -28.02172852 42.95507812 C-28 41 -28 41 -27 40 C-24.80766797 39.83693398 -22.61897698 39.74560325 -20.421875 39.671875 C-16.84582947 38.67981076 -15.34652822 36.831967 -13 34 C-12.31711173 30.82327774 -12.31711173 30.82327774 -12.51171875 27.38671875 C-12.52783203 26.13955078 -12.54394531 24.89238281 -12.56054688 23.60742188 C-12.62338867 21.66706055 -12.62338867 21.66706055 -12.6875 19.6875 C-12.71005859 18.37458984 -12.73261719 17.06167969 -12.75585938 15.70898438 C-12.81472275 12.4714987 -12.89691196 9.23633 -13 6 C-12.01 6.33 -11.02 6.66 -10 7 C-9.52949219 6.4946875 -9.05898438 5.989375 -8.57421875 5.46875 C-7.95160156 4.8190625 -7.32898438 4.169375 -6.6875 3.5 C-6.07261719 2.8503125 -5.45773437 2.200625 -4.82421875 1.53125 C-3 0 -3 0 0 0 Z " fill="#F3F3F3" transform="translate(323,144)"/>
<path d="M0 0 C60.06 0 120.12 0 182 0 C181.34 1.65 180.68 3.3 180 5 C178.16024667 11.96153576 177.07755634 18.75675916 178.625 25.875 C180.55379474 28.8558646 182.63654581 29.19569574 186 30 C187.32929164 35.31716656 187.32929164 35.31716656 185.9921875 38.08984375 C183.18687953 40.77963904 180.13050007 41.12419127 176.4375 41.8125 C169.24158484 43.36650541 163.38251239 45.73954004 158 51 C157.00156154 53.99531539 156.99267239 55.17255732 157.4375 58.1875 C157.623125 59.445625 157.80875 60.70375 158 62 C156.99712448 62.07294785 155.99424896 62.14589569 154.96098328 62.22105408 C145.47241912 62.91136989 135.98393166 63.6027317 126.49551678 64.2950964 C121.61838672 64.65094482 116.74123112 65.00643505 111.86401367 65.36108398 C107.15013726 65.70386913 102.4363325 66.04762483 97.72257423 66.39203072 C95.93144012 66.52273103 94.1402812 66.65309188 92.3490963 66.78309441 C88.28319055 67.07829149 84.21775671 67.37756091 80.15316772 67.69039917 C77.60018843 67.88634314 75.05260354 68.05287468 72.49551392 68.19558716 C71.514487 68.25809662 70.53346008 68.32060608 69.52270508 68.38500977 C68.71247391 68.42739273 67.90224274 68.4697757 67.06745911 68.51344299 C63.0550065 69.45773588 61.21235198 72.76122767 59 76 C57.3777546 77.70993434 55.70586575 79.37347684 54 81 C53.30648437 81.67675781 52.61296875 82.35351562 51.8984375 83.05078125 C48.60242523 86.1538831 45.9543399 88.63987174 41.6875 90.25 C39 90 39 90 36.75 88.375 C33.22138705 83.58616813 32.76781144 79.92080834 33 74 C34.98 73.01 34.98 73.01 37 72 C38.65 75.63 40.3 79.26 42 83 C50.29207388 77.76551767 50.29207388 77.76551767 56 70 C49.73 70 43.46 70 37 70 C36.01 66.7 35.02 63.4 34 60 C30.7 59.34 27.4 58.68 24 58 C23.67 59.32 23.34 60.64 23 62 C19.78870258 63.60564871 16.48325944 63.48378603 13 63 C9.5 61.125 9.5 61.125 7 59 C7 58.34 7 57.68 7 57 C6.05125 57.185625 5.1025 57.37125 4.125 57.5625 C1 58 1 58 -1 57 C-1.2010063 37.97140355 -0.52900527 19.04418978 0 0 Z " fill="#F7F7F7" transform="translate(103,80)"/>
<path d="M0 0 C0.99 0.33 1.98 0.66 3 1 C3 7.93 3 14.86 3 22 C5.97 22 8.94 22 12 22 C12 16.06 12 10.12 12 4 C12.33 4 12.66 4 13 4 C13 9.94 13 15.88 13 22 C40.72 22 68.44 22 97 22 C97.33 21.34 97.66 20.68 98 20 C98 20.99 98 21.98 98 23 C98.72068665 22.92894547 99.44137329 22.85789093 100.18389893 22.78468323 C107.65946792 22.09781124 115.0428682 21.86633233 122.546875 21.90234375 C123.68408997 21.9037587 124.82130493 21.90517365 125.99298096 21.90663147 C129.57868223 21.91217058 133.16431802 21.92471123 136.75 21.9375 C139.20051992 21.94252289 141.65104084 21.9470844 144.1015625 21.95117188 C150.06773018 21.96211996 156.03386041 21.97879608 162 22 C162 23.32 162 24.64 162 26 C157.71 25.67 153.42 25.34 149 25 C149 68.56 149 112.12 149 157 C149.33 157 149.66 157 150 157 C150.06940253 168.43919459 150.12276158 179.87833938 150.15543652 191.31770134 C150.17111606 196.62903129 150.19239597 201.94021759 150.22631836 207.25146484 C150.25883033 212.37373396 150.27683576 217.4958646 150.28463173 222.61822891 C150.29018995 224.57594103 150.30104328 226.53364526 150.31719017 228.49129868 C150.3388561 231.22597596 150.3419715 233.96007542 150.34057617 236.69482422 C150.35675491 237.91833588 150.35675491 237.91833588 150.3732605 239.16656494 C150.36076355 241.41867065 150.36076355 241.41867065 150 245 C146.7192776 247.18714826 145.78850619 247.22647784 142 247.125 C141.13375 247.10695313 140.2675 247.08890625 139.375 247.0703125 C138.59125 247.04710937 137.8075 247.02390625 137 247 C136.01 247 135.02 247 134 247 C132.14462612 246.87042708 130.2904654 246.7228765 128.4375 246.5625 C126.98150391 246.44068359 126.98150391 246.44068359 125.49609375 246.31640625 C123 246 123 246 121 245 C120.61559683 242.08023324 120.36102224 239.23940335 120.18359375 236.3046875 C120.12243378 235.41437836 120.0612738 234.52406921 119.9982605 233.60678101 C119.80128259 230.69675524 119.6187201 227.78604655 119.4375 224.875 C119.30727175 222.87074305 119.17665603 220.86651123 119.0456543 218.86230469 C118.7346965 214.05148754 118.43729088 209.23996717 118.14709473 204.42785645 C118.02411315 202.39799705 117.89685521 200.36839733 117.76855469 198.33886719 C117.4380948 193.01793279 117.21308138 187.70628904 117.09375 182.37646484 C117.01987065 179.71565372 116.92046145 177.05997758 116.8046875 174.40087891 C116.6168045 170.01162567 116.48710294 165.62315227 116.38632202 161.2310791 C116.33761831 159.47049743 116.27175808 157.71029571 116.18765259 155.9510498 C115.53756305 141.89137228 115.53756305 141.89137228 119.16503906 137.19995117 C121.68470211 135.20701419 124.24552593 133.63998951 127 132 C130.64241239 128.04421969 132.3028907 124.38727811 132.625 119 C132.3018446 111.36276081 129.51200628 104.15024644 127 97 C127.33 96.67 127.66 96.34 128 96 C127.70319452 89.02507113 124.80732281 82.88840365 120.7421875 77.2578125 C117.40094551 74.84552569 113.03044338 75.171593 109.03125 74.8203125 C106 74 106 74 104.12890625 71.74609375 C102.36885047 67.4647124 102.01025501 63.53890866 103 59 C105.9375 56.75 105.9375 56.75 109 55 C109.92457659 52.11993606 109.92457659 52.11993606 110 49 C110.2475 47.989375 110.495 46.97875 110.75 45.9375 C111.06695521 42.21327632 110.37479926 40.84975911 108 38 C105.73398135 36.70957237 105.73398135 36.70957237 103 36 C101.42927184 35.48730403 101.42927184 35.48730403 99.82681179 34.96425056 C95.80975568 33.9520637 92.1284622 33.7258411 88.02101135 33.75949097 C87.24732253 33.75778212 86.47363372 33.75607327 85.67649978 33.75431263 C83.10007368 33.75103465 80.52391162 33.76199334 77.94750977 33.77294922 C76.09428412 33.7735137 74.24105803 33.77319605 72.38783264 33.77206421 C67.36770675 33.77149113 62.34767671 33.7832382 57.32757306 33.79721212 C52.07718726 33.80972696 46.82679918 33.81089058 41.57640076 33.81326294 C31.63889229 33.81947549 21.70142791 33.83588328 11.76393884 33.85596192 C0.44839943 33.8783279 -10.86714211 33.88931611 -22.18269813 33.89935279 C-45.45515734 33.92024969 -68.72757434 33.95582488 -92 34 C-92 43.9 -92 53.8 -92 64 C-92.33 64 -92.66 64 -93 64 C-93 51.13 -93 38.26 -93 25 C-104.22 25 -115.44 25 -127 25 C-127 54.37 -127 83.74 -127 114 C-127.33 114 -127.66 114 -128 114 C-128 84.63 -128 55.26 -128 25 C-132.62 25 -137.24 25 -142 25 C-142 97.6 -142 170.2 -142 245 C-142.33 245 -142.66 245 -143 245 C-143 241.37 -143 237.74 -143 234 C-149.93 234 -156.86 234 -164 234 C-164 233.67 -164 233.34 -164 233 C-157.07 233 -150.14 233 -143 233 C-143.01474869 230.36101715 -143.02949738 227.7220343 -143.04469299 225.00308228 C-143.18287563 200.19230673 -143.31550269 175.38150597 -143.4429636 150.57067299 C-143.50863473 137.81370048 -143.57620304 125.05674323 -143.64819336 112.29980469 C-143.71091425 101.18459778 -143.77012064 90.06937875 -143.82505554 78.95413053 C-143.85428383 73.06533561 -143.88530668 67.17656217 -143.92053413 61.28779984 C-143.95360154 55.7508556 -143.98198783 50.21390755 -144.00670624 44.67691994 C-144.01664123 42.63947817 -144.02832045 40.60204408 -144.04183006 38.56462288 C-144.05995058 35.79337592 -144.07192527 33.02217018 -144.08229065 30.25088501 C-144.08909444 29.4357206 -144.09589823 28.62055619 -144.10290819 27.78068984 C-144.11412121 22.22824242 -144.11412121 22.22824242 -143 20 C-122.21 20 -101.42 20 -80 20 C-80 20.33 -80 20.66 -80 21 C-100.46 21 -120.92 21 -142 21 C-142 21.66 -142 22.32 -142 23 C-141.26156357 22.92894547 -140.52312714 22.85789093 -139.76231384 22.78468323 C-126.33657147 21.6869311 -112.89110398 21.87072601 -99.43023801 21.89860606 C-95.85485607 21.90492807 -92.27947297 21.90545031 -88.7040863 21.90663147 C-81.95783616 21.90971903 -75.21160255 21.91789709 -68.46535963 21.92798096 C-60.77471301 21.93922285 -53.08406552 21.94467274 -45.39341271 21.94967639 C-29.59559896 21.96008235 -13.79780162 21.97763103 2 22 C1.86145912 18.70798357 1.71292976 15.41649291 1.5625 12.125 C1.52318359 11.18785156 1.48386719 10.25070313 1.44335938 9.28515625 C1.38051758 7.94130859 1.38051758 7.94130859 1.31640625 6.5703125 C1.27974854 5.74289551 1.24309082 4.91547852 1.20532227 4.06298828 C1.11761673 1.93820571 1.11761673 1.93820571 0 0 Z " fill="#F4F4F4" transform="translate(195,46)"/>
<path d="M0 0 C7.56137109 20.0106285 7.56137109 20.0106285 3.9609375 28.4296875 C1.32114503 32.80967836 -1.25262666 35.18533193 -5.6796875 37.671875 C-8.96977984 40.20245709 -9.88913553 41.47715506 -10.76098633 45.58886719 C-11.08797435 50.23083238 -10.8824381 54.85621812 -10.6875 59.5 C-10.64620406 61.24683284 -10.60825972 62.9937478 -10.57348633 64.74072266 C-10.46869328 69.27648808 -10.3028801 73.80756969 -10.11181641 78.3404541 C-10.00471393 80.88787958 -9.90720007 83.43548548 -9.8125 85.98339844 C-9.030613 106.4697669 -7.59275938 126.91612219 -5.96557617 147.35107422 C-4.0928657 171.18573139 -4.0928657 171.18573139 -6 175 C-5.01 175 -4.02 175 -3 175 C-3 176.65 -3 178.3 -3 180 C-4.32 180 -5.64 180 -7 180 C-6.67 180.66 -6.34 181.32 -6 182 C-5.93049459 183.54023996 -5.91547643 185.08334988 -5.9375 186.625 C-5.94652344 187.44226563 -5.95554687 188.25953125 -5.96484375 189.1015625 C-5.97644531 189.72804688 -5.98804688 190.35453125 -6 191 C-5.34 191 -4.68 191 -4 191 C-3.34 193.64 -2.68 196.28 -2 199 C-10.58 199 -19.16 199 -28 199 C-28 198.01 -28 197.02 -28 196 C-27.28972656 195.82984375 -26.57945312 195.6596875 -25.84765625 195.484375 C-24.46900391 195.12085938 -24.46900391 195.12085938 -23.0625 194.75 C-22.14597656 194.51796875 -21.22945313 194.2859375 -20.28515625 194.046875 C-19.53105469 193.70140625 -18.77695312 193.3559375 -18 193 C-17.25932353 190.99656798 -17.25932353 190.99656798 -17 189 C-16.34 188.67 -15.68 188.34 -15 188 C-14.53476937 186.10466658 -14.53476937 186.10466658 -14.375 183.9375 C-14.189375 181.9884375 -14.189375 181.9884375 -14 180 C-15.65 180 -17.3 180 -19 180 C-19.10521973 179.28199219 -19.21043945 178.56398438 -19.31884766 177.82421875 C-20.31231737 171.19696073 -21.40446401 164.59598723 -22.5859375 158 C-22.72887741 157.20118408 -22.87181732 156.40236816 -23.01908875 155.5793457 C-23.31769408 153.91128938 -23.61633468 152.24323937 -23.91500854 150.57519531 C-27.03718599 133.09613862 -29.77448277 115.61744047 -32 98 C-32.78514208 101.54962294 -33.19625578 104.96167913 -33.38891602 108.59033203 C-33.4788961 110.23958176 -33.4788961 110.23958176 -33.57069397 111.92214966 C-33.66138405 113.69705276 -33.66138405 113.69705276 -33.75390625 115.5078125 C-33.81907944 116.74304657 -33.88425262 117.97828064 -33.95140076 119.25094604 C-34.1235534 122.54130518 -34.29197071 125.83183213 -34.45935059 129.12243652 C-34.62822128 132.40092624 -34.80637593 135.67892015 -34.98242188 138.95703125 C-35.69945866 152.65051873 -36.22311975 166.28729704 -36 180 C-36.99 180.33 -37.98 180.66 -39 181 C-39 184.3 -39 187.6 -39 191 C-38.34 191 -37.68 191 -37 191 C-36.34 193.64 -35.68 196.28 -35 199 C-43.58 199 -52.16 199 -61 199 C-61 198.01 -61 197.02 -61 196 C-60.00419922 195.70996094 -60.00419922 195.70996094 -58.98828125 195.4140625 C-52.40210691 193.47248648 -52.40210691 193.47248648 -46 191 C-46.165 190.484375 -46.33 189.96875 -46.5 189.4375 C-47.15049 186.26636124 -47.0620734 183.22781666 -47 180 C-48.65 180 -50.3 180 -52 180 C-52.04898437 178.89269531 -52.09796875 177.78539062 -52.1484375 176.64453125 C-52.22318977 175.03381831 -52.29879381 173.4231448 -52.375 171.8125 C-52.41681396 170.92320801 -52.45862793 170.03391602 -52.50170898 169.11767578 C-52.76250114 163.87419321 -53.09223072 158.64344132 -53.51171875 153.41015625 C-54.5906121 139.78924761 -55.19467741 126.28378893 -55.1875 112.625 C-55.18831573 111.8912616 -55.18913147 111.15752319 -55.18997192 110.40155029 C-55.18910024 103.51584072 -55.09252958 96.82108991 -54 90 C-55.32 89.67 -56.64 89.34 -58 89 C-56.90328979 88.94054199 -56.90328979 88.94054199 -55.78442383 88.87988281 C-52.45904615 88.68888135 -49.13609707 88.46974196 -45.8125 88.25 C-44.66201172 88.188125 -43.51152344 88.12625 -42.32617188 88.0625 C-40.65844727 87.94648438 -40.65844727 87.94648438 -38.95703125 87.828125 C-37.93585205 87.7652832 -36.91467285 87.70244141 -35.86254883 87.63769531 C-32.35868777 86.85713368 -30.58602362 85.44794478 -28 83 C-26.52095926 80.04191851 -26.85459138 77.05413136 -26.875 73.8125 C-26.8762085 73.08160156 -26.87741699 72.35070312 -26.87866211 71.59765625 C-26.93071664 63.85834836 -27.30885955 56.13241025 -27.73193359 48.40551758 C-27.78043457 47.45700928 -27.82893555 46.50850098 -27.87890625 45.53125 C-27.9260376 44.68111328 -27.97316895 43.83097656 -28.02172852 42.95507812 C-28 41 -28 41 -27 40 C-24.80766797 39.83693398 -22.61897698 39.74560325 -20.421875 39.671875 C-16.84582947 38.67981076 -15.34652822 36.831967 -13 34 C-12.31711173 30.82327774 -12.31711173 30.82327774 -12.51171875 27.38671875 C-12.52783203 26.13955078 -12.54394531 24.89238281 -12.56054688 23.60742188 C-12.60244141 22.31384766 -12.64433594 21.02027344 -12.6875 19.6875 C-12.72133789 17.71813477 -12.72133789 17.71813477 -12.75585938 15.70898438 C-12.81472275 12.4714987 -12.89691196 9.23633 -13 6 C-12.01 6.33 -11.02 6.66 -10 7 C-9.52949219 6.4946875 -9.05898438 5.989375 -8.57421875 5.46875 C-7.95160156 4.8190625 -7.32898438 4.169375 -6.6875 3.5 C-6.07261719 2.8503125 -5.45773437 2.200625 -4.82421875 1.53125 C-3 0 -3 0 0 0 Z " fill="#9EBFBE" transform="translate(323,144)"/>
<path d="M0 0 C9.57 0 19.14 0 29 0 C29.40974383 4.87053983 29.81893226 9.74112047 30.22680664 14.61181641 C30.36516971 16.26223295 30.50383208 17.91262443 30.64282227 19.56298828 C31.04359647 24.32308629 31.43801537 29.08363518 31.82382202 33.8449707 C31.98141477 35.77266334 32.14520101 37.69984732 32.30981445 39.62695312 C33.10051791 49.49815548 33.28219719 59.35173708 33.3125 69.25 C33.31578308 70.13563629 33.31906616 71.02127258 33.32244873 71.93374634 C33.34527024 91.16302283 31.3041902 109.82070994 28.42089844 128.81494141 C28.23817383 130.03745605 28.05544922 131.2599707 27.8671875 132.51953125 C27.7007373 133.59952393 27.53428711 134.6795166 27.36279297 135.79223633 C26.92916794 139.07763036 26.92916794 139.07763036 27.00830078 142.7175293 C27 146 27 146 26 149 C22.37 149 18.74 149 15 149 C15.00222061 147.99490387 15.00444122 146.98980774 15.00672913 145.95425415 C15.0270606 136.45074177 15.04202018 126.94723385 15.05181217 117.44370461 C15.05701566 112.55865187 15.06406698 107.67361679 15.07543945 102.78857422 C15.08635878 98.06828006 15.0922959 93.34800281 15.09487724 88.62769699 C15.09671526 86.83291737 15.10030426 85.0381386 15.10573006 83.24336624 C15.13130167 74.42867012 15.13310122 65.75899007 14 57 C13.88290176 57.65025146 13.76580353 58.30050293 13.64515686 58.97045898 C9.25255171 83.1168581 -0.33557644 106.50336466 -14 127 C-14.38499891 128.65549531 -14.72793135 130.3222433 -15 132 C-18.64160808 133.21386936 -19.33165469 132.6674695 -22.6875 131.0625 C-23.49574219 130.68222656 -24.30398437 130.30195313 -25.13671875 129.91015625 C-25.75160156 129.60980469 -26.36648437 129.30945313 -27 129 C-27 127.35 -27 125.7 -27 124 C-26.01 123.505 -26.01 123.505 -25 123 C-24.01577333 120.88810798 -24.01577333 120.88810798 -23.15234375 118.27172852 C-22.79857666 117.26300186 -22.44480957 116.25427521 -22.08032227 115.21498108 C-21.70319092 114.11407639 -21.32605957 113.01317169 -20.9375 111.87890625 C-20.54554443 110.7498436 -20.15358887 109.62078094 -19.74975586 108.45750427 C-18.91908514 106.05860769 -18.09212842 103.6584224 -17.26855469 101.25708008 C-16.01489179 97.60587134 -14.74667341 93.95996797 -13.4765625 90.31445312 C-12.6709877 87.98207711 -11.86627331 85.6494037 -11.0625 83.31640625 C-10.68536865 82.23371964 -10.3082373 81.15103302 -9.91967773 80.03553772 C-4.64538661 64.57353768 -3.91657146 49.48758944 -3.4375 33.25 C-3.39416442 31.85936611 -3.35054622 30.46874101 -3.30664062 29.078125 C-3.20166251 25.71882523 -3.09950417 22.35946561 -3 19 C-2.57074219 19.64453125 -2.14148438 20.2890625 -1.69921875 20.953125 C-0.08299547 23.31836775 -0.08299547 23.31836775 3.1875 23.75 C4.115625 23.8325 5.04375 23.915 6 24 C4.25084151 18.76273917 4.25084151 18.76273917 0.25 15.25 C-2 13 -2 13 -2.1328125 10.3828125 C-1.5 3 -1.5 3 0 0 Z " fill="#0A3B38" transform="translate(104,179)"/>
<path d="M0 0 C1.15941101 0.00141495 2.31882202 0.0028299 3.5133667 0.00428772 C7.17039714 0.00982849 10.82736346 0.0223695 14.484375 0.03515625 C16.98307202 0.04017892 19.48177002 0.04474047 21.98046875 0.04882812 C28.06512558 0.05977843 34.1497457 0.07645629 40.234375 0.09765625 C40.25750292 7.9034082 40.27529238 15.7091522 40.28618717 23.51492977 C40.29141502 27.13911585 40.29851087 30.76327855 40.30981445 34.38745117 C40.32064684 37.882256 40.32665258 41.37703829 40.32925224 44.8718586 C40.33201051 46.86005014 40.33982188 48.84823256 40.34767151 50.83641052 C40.34774704 52.03758011 40.34782257 53.23874969 40.34790039 54.47631836 C40.350121 55.5399913 40.35234161 56.60366425 40.35462952 57.6995697 C40.234375 60.09765625 40.234375 60.09765625 39.234375 61.09765625 C36.78918311 61.31405164 34.36024274 61.47440482 31.91015625 61.60546875 C30.39116149 61.70530334 28.87228327 61.80692418 27.35351562 61.91015625 C24.95548896 62.07075916 22.55883518 62.22205476 20.15844727 62.34277344 C11.08896122 62.49691588 11.08896122 62.49691588 2.89526367 65.69067383 C1.40837969 67.43192012 0.32742037 69.09498357 -0.765625 71.09765625 C-2.3878704 72.80759059 -4.05975925 74.47113309 -5.765625 76.09765625 C-6.80589844 77.11279297 -6.80589844 77.11279297 -7.8671875 78.1484375 C-11.16319977 81.25153935 -13.8112851 83.73752799 -18.078125 85.34765625 C-20.765625 85.09765625 -20.765625 85.09765625 -23.015625 83.47265625 C-26.54423795 78.68382438 -26.99781356 75.01846459 -26.765625 69.09765625 C-24.785625 68.10765625 -24.785625 68.10765625 -22.765625 67.09765625 C-21.115625 70.72765625 -19.465625 74.35765625 -17.765625 78.09765625 C-9.47355112 72.86317392 -9.47355112 72.86317392 -3.765625 65.09765625 C-10.035625 65.09765625 -16.305625 65.09765625 -22.765625 65.09765625 C-25.36663113 56.90820266 -26.1297061 49.98439712 -25.83984375 41.4296875 C-25.81340286 40.26886154 -25.78696198 39.10803558 -25.75971985 37.91203308 C-25.67271698 34.24417191 -25.56330345 30.57738688 -25.453125 26.91015625 C-25.38978725 24.40693827 -25.32792403 21.90368252 -25.26757812 19.40039062 C-25.11729911 13.29893889 -24.94867086 7.19820825 -24.765625 1.09765625 C-16.48828457 0.2786859 -8.31499204 -0.03910792 0 0 Z " fill="#FBFBFB" transform="translate(162.765625,84.90234375)"/>
<path d="M0 0 C6.46434522 1.20266888 13.25232946 2.59350613 17.625 7.8125 C18.98097717 11.2423246 18.61059366 12.94963979 17.6875 16.5 C17.44 17.716875 17.1925 18.93375 16.9375 20.1875 C15.6875 23.5 15.6875 23.5 13.0625 24.8125 C10.45968145 26.24292963 10.45968145 26.24292963 10.29296875 28.7578125 C10.10057783 35.01517703 10.10057783 35.01517703 12.6875 40.5 C15.59535136 41.16491483 15.59535136 41.16491483 18.9375 41.3125 C26.31515432 42.25605888 26.31515432 42.25605888 29.25 45.5625 C32.77013107 50.65658695 36.79473928 57.13823048 35.6875 63.5 C33.88655525 65.50267395 32.23633673 67.11352605 30.1875 68.8125 C29.66285156 69.26689453 29.13820313 69.72128906 28.59765625 70.18945312 C27.30515847 71.3057012 25.99771858 72.40460622 24.6875 73.5 C23.6975 73.005 23.6975 73.005 22.6875 72.5 C22.7189209 73.28648926 22.7503418 74.07297852 22.78271484 74.88330078 C22.90781056 78.46357195 22.98559411 82.04338302 23.0625 85.625 C23.11277344 86.8625 23.16304688 88.1 23.21484375 89.375 C23.38080592 99.66465461 23.38080592 99.66465461 20.2890625 103.3046875 C16.32625768 106.44784959 11.57338227 106.48068821 6.6875 106.5 C5.40508315 95.11855043 4.34573397 83.9681489 4.6875 72.5 C5.3475 72.17 6.0075 71.84 6.6875 71.5 C6.48253906 70.76394531 6.27757812 70.02789062 6.06640625 69.26953125 C5.79699219 68.29371094 5.52757812 67.31789063 5.25 66.3125 C4.98316406 65.34957031 4.71632813 64.38664062 4.44140625 63.39453125 C3.75869982 60.77336303 3.18857805 58.161065 2.6875 55.5 C1.6975 55.5 0.7075 55.5 -0.3125 55.5 C-0.745625 56.9540625 -0.745625 56.9540625 -1.1875 58.4375 C-2.3125 61.5 -2.3125 61.5 -4.3125 62.5 C-5.9799606 62.58426094 -7.65075187 62.60725143 -9.3203125 62.59765625 C-10.30644531 62.59443359 -11.29257812 62.59121094 -12.30859375 62.58789062 C-13.34113281 62.57951172 -14.37367188 62.57113281 -15.4375 62.5625 C-16.99791016 62.55573242 -16.99791016 62.55573242 -18.58984375 62.54882812 C-21.16411962 62.53701952 -23.73828146 62.52055075 -26.3125 62.5 C-29.47916667 56.16666667 -29.47916667 56.16666667 -28.7578125 53.28125 C-22.97252907 46.15127907 -15.35793455 43.53371122 -6.67138672 41.83007812 C-2.18777403 41.00710073 -2.18777403 41.00710073 0.6875 37.5 C0.85449232 34.37478167 0.85449232 34.37478167 0.6875 31.5 C0.11 31.4175 -0.4675 31.335 -1.0625 31.25 C-3.95979825 30.28423392 -5.31520757 28.77278104 -7.3125 26.5 C-10.16144804 20.80210392 -8.03766415 12.34801408 -6.3125 6.5 C-4.91239651 3.24814673 -3.67979893 0.7956322 0 0 Z " fill="#253137" transform="translate(288.3125,78.5)"/>
<path d="M0 0 C0.51457139 2.87302359 1.01161672 5.74749852 1.5 8.625 C1.64308594 9.41390625 1.78617187 10.2028125 1.93359375 11.015625 C4.36036303 25.57624071 2.68813043 40.58864292 1.85449219 55.24584961 C1.16369513 67.51219665 0.87451878 79.71416875 1 92 C-0.485 92.495 -0.485 92.495 -2 93 C-2 96.3 -2 99.6 -2 103 C-1.34 103 -0.68 103 0 103 C0.66 105.64 1.32 108.28 2 111 C-6.58 111 -15.16 111 -24 111 C-24 110.01 -24 109.02 -24 108 C-23.00419922 107.70996094 -23.00419922 107.70996094 -21.98828125 107.4140625 C-15.40210691 105.47248648 -15.40210691 105.47248648 -9 103 C-9.165 102.484375 -9.33 101.96875 -9.5 101.4375 C-10.15049 98.26636124 -10.0620734 95.22781666 -10 92 C-11.65 92 -13.3 92 -15 92 C-15.04898437 90.89269531 -15.09796875 89.78539062 -15.1484375 88.64453125 C-15.22318977 87.03381831 -15.29879381 85.4231448 -15.375 83.8125 C-15.43772095 82.47856201 -15.43772095 82.47856201 -15.50170898 81.11767578 C-15.76250114 75.87419321 -16.09223072 70.64344132 -16.51171875 65.41015625 C-17.5906121 51.78924761 -18.19467741 38.28378893 -18.1875 24.625 C-18.18831573 23.8912616 -18.18913147 23.15752319 -18.18997192 22.40155029 C-18.18910024 15.51584072 -18.09252958 8.82108991 -17 2 C-18.32 1.67 -19.64 1.34 -21 1 C-18.25008168 0.83188272 -15.50007888 0.6654519 -12.75 0.5 C-11.97269531 0.45230469 -11.19539063 0.40460938 -10.39453125 0.35546875 C-9.26337891 0.28779297 -9.26337891 0.28779297 -8.109375 0.21875 C-7.41811523 0.17685547 -6.72685547 0.13496094 -6.01464844 0.09179688 C-4.01161035 0.00052902 -2.0051163 0 0 0 Z " fill="#9FC0BF" transform="translate(286,232)"/>
<path d="M0 0 C1.3743291 1.29103643 2.70896357 2.6256709 4 4 C6.24512262 5.12256131 7.51456649 5.13413762 10 5.125 C10.70125 5.12757813 11.4025 5.13015625 12.125 5.1328125 C14.09153775 5.11377236 14.09153775 5.11377236 16 4 C16.33 3.01 16.66 2.02 17 1 C24.21804511 0.51879699 24.21804511 0.51879699 27.4375 2.5 C29.63640725 6.01825161 29.72498419 8.87476285 30 13 C31.0725 12.835 32.145 12.67 33.25 12.5 C38.82258642 11.78839274 44.39263574 11.91588954 50 12 C47.69984056 18.57188413 42.60704035 22.13593765 37 26 C36.01 26.33 35.02 26.66 34 27 C32.35 23.37 30.7 19.74 29 16 C28.01 16.33 27.02 16.66 26 17 C26.495 20.96 26.495 20.96 27 25 C26.34 25 25.68 25 25 25 C24.90912109 26.46373047 24.90912109 26.46373047 24.81640625 27.95703125 C24.73261719 29.22933594 24.64882812 30.50164062 24.5625 31.8125 C24.48128906 33.07707031 24.40007812 34.34164062 24.31640625 35.64453125 C24 39 24 39 23 42 C13.76 42 4.52 42 -5 42 C-5.6875 31.8125 -5.6875 31.8125 -5.8659668 28.62817383 C-6.24156967 24.03595537 -6.50117901 21.6267238 -9.4375 17.9375 C-10.283125 17.298125 -11.12875 16.65875 -12 16 C-12.763125 15.401875 -13.52625 14.80375 -14.3125 14.1875 C-14.869375 13.795625 -15.42625 13.40375 -16 13 C-15.49360437 8.64499757 -14.95505325 5.32443491 -12 2 C-8.05249814 0.57860474 -4.18403866 0 0 0 Z " fill="#6D9F9C" transform="translate(110,137)"/>
<path d="M0 0 C0.33 0 0.66 0 1 0 C1.95074712 9.94871865 2.13304074 19.81987255 2.09765625 29.80078125 C2.09578587 31.37403823 2.09436491 32.94729581 2.09336853 34.52055359 C2.08959208 38.61556674 2.07980481 42.71054313 2.06866455 46.80554199 C2.05652248 51.74339793 2.05202494 56.68126633 2.04621124 61.619133 C2.03658931 69.07944739 2.01739903 76.53968148 2 84 C-15.325 84.495 -15.325 84.495 -33 85 C-33.16110937 90.60720022 -33.16110937 90.60720022 -31 95 C-35.66150198 95 -37.99573061 93.44233789 -41.75 91 C-42.65298828 90.42765625 -42.65298828 90.42765625 -43.57421875 89.84375 C-45.05458854 88.90383267 -46.52799967 87.95297131 -48 87 C-46.79618552 84.50638429 -45.54571278 82.31856917 -44 80 C-43.01 80 -42.02 80 -41 80 C-40.67 78.35 -40.34 76.7 -40 75 C-36.7 75.99 -33.4 76.98 -30 78 C-29.76410156 77.01515625 -29.52820313 76.0303125 -29.28515625 75.015625 C-27.99897738 70.52806479 -25.78353392 66.75893835 -23.4375 62.75 C-11.90233377 42.44389367 -4.7239293 22.80153586 0 0 Z " fill="#FCFCFC" transform="translate(118,233)"/>
<path d="M0 0 C0.79792969 0.00386719 1.59585938 0.00773438 2.41796875 0.01171875 C3.21589844 0.00785156 4.01382813 0.00398437 4.8359375 0 C10.79136108 0.01011108 10.79136108 0.01011108 11.91796875 1.13671875 C13.76734852 27.19587842 8.36173498 49.74463645 -0.33203125 74.01171875 C-0.89232368 75.58579639 -1.45222176 77.16001445 -2.01171875 78.734375 C-3.36396589 82.5367844 -4.72147574 86.3372747 -6.08203125 90.13671875 C-8.08203125 88.13671875 -8.08203125 88.13671875 -8.32926941 85.17436218 C-8.32784439 83.90341202 -8.32641937 82.63246185 -8.32495117 81.32299805 C-8.32684952 80.62182358 -8.32874786 79.92064911 -8.33070374 79.19822693 C-8.33442127 76.86901822 -8.3236822 74.54011878 -8.3125 72.2109375 C-8.31130717 70.58584123 -8.31085526 68.96074427 -8.31111145 67.33564758 C-8.30954418 63.91830158 -8.30124486 60.50105995 -8.2878418 57.08374023 C-8.2709998 52.73780034 -8.26702326 48.3919768 -8.26778698 44.04600811 C-8.26751249 40.68189922 -8.26198464 37.31781497 -8.25478554 33.95371437 C-8.2516355 32.35400389 -8.24964019 30.75429066 -8.24889183 29.15457726 C-8.22037853 0.0139565 -8.22037853 0.0139565 0 0 Z " fill="#F6F7F7" transform="translate(89.08203125,202.86328125)"/>
<path d="M0 0 C6.46434522 1.20266888 13.25232946 2.59350613 17.625 7.8125 C18.98097717 11.2423246 18.61059366 12.94963979 17.6875 16.5 C17.44 17.716875 17.1925 18.93375 16.9375 20.1875 C15.6875 23.5 15.6875 23.5 13.0625 24.8125 C10.47169054 26.23670874 10.47169054 26.23670874 10.29296875 28.6875 C10.21182147 33.64486095 10.74404294 37.88428949 12.6875 42.5 C9.80718062 46.10039923 7.06235117 47.50387988 2.65625 48.44921875 C0.6875 48.5 0.6875 48.5 -2.25 46.8125 C-4.3125 44.5 -4.3125 44.5 -5.3125 41.5 C-4.1059375 41.1596875 -4.1059375 41.1596875 -2.875 40.8125 C-0.08310157 39.76000395 -0.08310157 39.76000395 0.5 37.0625 C0.72398782 34.42955824 0.72398782 34.42955824 0.6875 31.5 C0.11 31.4175 -0.4675 31.335 -1.0625 31.25 C-3.95979825 30.28423392 -5.31520757 28.77278104 -7.3125 26.5 C-10.16144804 20.80210392 -8.03766415 12.34801408 -6.3125 6.5 C-4.91239651 3.24814673 -3.67979893 0.7956322 0 0 Z " fill="#F68879" transform="translate(288.3125,78.5)"/>
<path d="M0 0 C7.56137109 20.0106285 7.56137109 20.0106285 3.9609375 28.4296875 C-2.62563857 39.35825226 -15.3963304 46.45943363 -27 51 C-28 50 -28 50 -28.1328125 47.96875 C-28.13023437 47.1540625 -28.12765625 46.339375 -28.125 45.5 C-28.12757813 44.6853125 -28.13015625 43.870625 -28.1328125 43.03125 C-28 41 -28 41 -27 40 C-24.80766797 39.83693398 -22.61897698 39.74560325 -20.421875 39.671875 C-16.84582947 38.67981076 -15.34652822 36.831967 -13 34 C-12.31711173 30.82327774 -12.31711173 30.82327774 -12.51171875 27.38671875 C-12.52783203 26.13955078 -12.54394531 24.89238281 -12.56054688 23.60742188 C-12.60244141 22.31384766 -12.64433594 21.02027344 -12.6875 19.6875 C-12.71005859 18.37458984 -12.73261719 17.06167969 -12.75585938 15.70898438 C-12.81472275 12.4714987 -12.89691196 9.23633 -13 6 C-12.01 6.33 -11.02 6.66 -10 7 C-9.52949219 6.4946875 -9.05898438 5.989375 -8.57421875 5.46875 C-7.95160156 4.8190625 -7.32898438 4.169375 -6.6875 3.5 C-6.07261719 2.8503125 -5.45773437 2.200625 -4.82421875 1.53125 C-3 0 -3 0 0 0 Z " fill="#FC8B7B" transform="translate(323,144)"/>
<path d="M0 0 C46.53 0.495 46.53 0.495 94 1 C94 3.31 94 5.62 94 8 C62.98 8.33 31.96 8.66 0 9 C0 6.03 0 3.06 0 0 Z " fill="#FEFEFE" transform="translate(103,71)"/>
<path d="M0 0 C27.72 0 55.44 0 84 0 C84 2.31 84 4.62 84 7 C56.28 7 28.56 7 0 7 C0 4.69 0 2.38 0 0 Z " fill="#FEFEFE" transform="translate(208,72)"/>
<path d="M0 0 C6.39828479 6.09360456 8.35856295 14.50516632 8.7421875 23.13671875 C8.74884823 25.2581617 8.6933984 27.3796495 8.625 29.5 C6.87683142 30.00636607 5.12637737 30.50484619 3.375 31 C2.40046875 31.2784375 1.4259375 31.556875 0.421875 31.84375 C-2.375 32.5 -2.375 32.5 -6.375 32.5 C-6.375 31.18 -6.375 29.86 -6.375 28.5 C-5.240625 28.04625 -4.10625 27.5925 -2.9375 27.125 C0.67221692 25.92904194 0.67221692 25.92904194 1.625 23.5 C1.72149939 21.5018949 1.75480872 19.5004282 1.75 17.5 C1.75257813 16.4275 1.75515625 15.355 1.7578125 14.25 C1.8122341 11.53817948 1.8122341 11.53817948 0.625 9.5 C-0.138125 9.5 -0.90125 9.5 -1.6875 9.5 C-4.58333333 9.5 -7.47916667 9.5 -10.375 9.5 C-12.46850689 12.9019487 -12.55442163 15.55272412 -12.375 19.5 C-13.695 18.51 -15.015 17.52 -16.375 16.5 C-16.705 17.16 -17.035 17.82 -17.375 18.5 C-16.570625 19.345625 -15.76625 20.19125 -14.9375 21.0625 C-12.15871338 24.3515158 -11.63382224 27.18629604 -11.375 31.5 C-17 32.625 -17 32.625 -20.375 31.5 C-20.44847656 30.28763672 -20.44847656 30.28763672 -20.5234375 29.05078125 C-20.63558594 27.44783203 -20.63558594 27.44783203 -20.75 25.8125 C-20.81960937 24.75675781 -20.88921875 23.70101562 -20.9609375 22.61328125 C-21.36475281 19.57704729 -22.16077366 17.2917645 -23.375 14.5 C-23.95637955 11.22974003 -23.83942607 9.30671412 -22.171875 6.41015625 C-16.46480961 -1.55955881 -9.36613912 -4.1627285 0 0 Z " fill="#273238" transform="translate(126.375,101.5)"/>
<path d="M0 0 C1.670625 0.8971875 1.670625 0.8971875 3.375 1.8125 C4.00148438 2.14894531 4.62796875 2.48539063 5.2734375 2.83203125 C8.01997505 4.68998312 8.91922971 6.63653368 9.625 9.8125 C10.62808482 18.36607781 10.7299363 26.81019111 8 35 C7.33278464 38.08559301 7.33278464 38.08559301 8 41 C9.98260426 42.68732277 11.9832342 44.35366057 14 46 C14.875 49.3125 14.875 49.3125 15 52 C13.02 52 11.04 52 9 52 C0.55868039 37.88133268 -5.73578202 23.34489022 -2.328125 6.72265625 C-1.63313367 4.43770835 -0.89406937 2.21388607 0 0 Z " fill="#FCC3BD" transform="translate(95,151)"/>
<path d="M0 0 C2.64 0 5.28 0 8 0 C8.87510383 5.47859123 9.29024034 10.89857799 9.5625 16.4375 C9.60568359 17.26443359 9.64886719 18.09136719 9.69335938 18.94335938 C9.79838033 20.96209549 9.89958559 22.98102951 10 25 C6.04 25.495 6.04 25.495 2 26 C0.79727181 23.59454362 0.89928528 22.05003047 0.9375 19.375 C0.94652344 18.55773437 0.95554688 17.74046875 0.96484375 16.8984375 C0.97644531 16.27195313 0.98804688 15.64546875 1 15 C-1.64 15.33 -4.28 15.66 -7 16 C-7 19.63 -7 23.26 -7 27 C-9.64 27 -12.28 27 -15 27 C-16.01286753 18.30019136 -16.10621544 9.74507107 -16 1 C-13.69 1 -11.38 1 -9 1 C-8.67 3.97 -8.34 6.94 -8 10 C-5.36 9.67 -2.72 9.34 0 9 C0 6.03 0 3.06 0 0 Z " fill="#F4F8F8" transform="translate(172,181)"/>
<path d="M0 0 C0.99 0 1.98 0 3 0 C3.22424235 10.10994409 3.42558819 20.22006745 3.59840012 30.33102894 C3.67936464 35.02689998 3.76795736 39.72235899 3.87451172 44.41772461 C3.97721782 48.95627149 4.05919554 53.49477893 4.12732697 58.03397179 C4.15675163 59.75828663 4.19341293 61.48249495 4.2377243 63.20649147 C4.48183313 72.90346111 4.40372345 81.07586386 0 90 C-2 88 -2 88 -2.24723816 85.03764343 C-2.24581314 83.76669327 -2.24438812 82.4957431 -2.24291992 81.1862793 C-2.24481827 80.48510483 -2.24671661 79.78393036 -2.24867249 79.06150818 C-2.25239002 76.73229947 -2.24165095 74.40340003 -2.23046875 72.07421875 C-2.22927592 70.44912248 -2.22882401 68.82402552 -2.2290802 67.19892883 C-2.22751293 63.78158283 -2.21921361 60.3643412 -2.20581055 56.94702148 C-2.18896855 52.60108159 -2.18499201 48.25525805 -2.18575573 43.90928936 C-2.18548124 40.54518047 -2.17995339 37.18109622 -2.17275429 33.81699562 C-2.16960425 32.21728514 -2.16760894 30.61757191 -2.16686058 29.01785851 C-2.14056188 2.14056188 -2.14056188 2.14056188 0 0 Z " fill="#EFEFEF" transform="translate(83,203)"/>
<path d="M0 0 C0.33 0.99 0.66 1.98 1 3 C2.65 2.67 4.3 2.34 6 2 C8.27947698 5.41921547 8.32513105 6.90310177 8.375 10.9375 C8.40335938 11.97777344 8.43171875 13.01804687 8.4609375 14.08984375 C7.8927028 17.67742722 6.83283868 18.80068706 4 21 C1.25 21.75 1.25 21.75 -1 22 C-0.22520264 24.99152582 -0.22520264 24.99152582 1 28 C1.99 28.33 2.98 28.66 4 29 C3.67 30.32 3.34 31.64 3 33 C1.5629191 33.05422947 0.12524538 33.09289723 -1.3125 33.125 C-2.11300781 33.14820313 -2.91351563 33.17140625 -3.73828125 33.1953125 C-6 33 -6 33 -9 31 C-8.125 24.125 -8.125 24.125 -7 23 C-8.25805377 18.49197399 -9.90407165 15.5087188 -13 12 C-12.01 11.01 -11.02 10.02 -10 9 C-9.34 9.66 -8.68 10.32 -8 11 C-7.8453125 9.6078125 -7.8453125 9.6078125 -7.6875 8.1875 C-6.99158743 4.96099626 -6.70392137 3.80261425 -4 2 C-2.68 2 -1.36 2 0 2 C0 1.34 0 0.68 0 0 Z " fill="#EEBBB5" transform="translate(121,108)"/>
<path d="M0 0 C2.31 0 4.62 0 7 0 C7.25024888 6.50647088 7.25024888 6.50647088 6.01806641 8.93652344 C4.83089415 11.34275364 4.68869685 13.09388196 4.5859375 15.765625 C4.52792969 17.09980469 4.52792969 17.09980469 4.46875 18.4609375 C4.42234375 19.84152344 4.42234375 19.84152344 4.375 21.25 C4.31699219 22.65378906 4.31699219 22.65378906 4.2578125 24.0859375 C4.16375656 26.39030796 4.08079814 28.6951266 4 31 C6.97 29.68 9.94 28.36 13 27 C13.33 29.64 13.66 32.28 14 35 C11.02111874 35.1938211 8.04209754 35.38035102 5.0625 35.5625 C4.21236328 35.61857422 3.36222656 35.67464844 2.48632812 35.73242188 C1.67744141 35.78076172 0.86855469 35.82910156 0.03515625 35.87890625 C-0.7137085 35.9260376 -1.46257324 35.97316895 -2.23413086 36.02172852 C-4 36 -4 36 -5 35 C-5.70294633 27.76776369 -4.80372474 20.68625477 -3.625 13.5625 C-3.49899414 12.79365479 -3.37298828 12.02480957 -3.24316406 11.23266602 C-2.545857 7.26401501 -1.6878256 3.6912012 0 0 Z " fill="#FD8C7C" transform="translate(247,107)"/>
<path d="M0 0 C0.66 0 1.32 0 2 0 C2 17.49 2 34.98 2 53 C-1.63 52.67 -5.26 52.34 -9 52 C-9.33 53.32 -9.66 54.64 -10 56 C-13.21129742 57.60564871 -16.51674056 57.48378603 -20 57 C-23.5 55.125 -23.5 55.125 -26 53 C-26 52.34 -26 51.68 -26 51 C-26.94875 51.185625 -27.8975 51.37125 -28.875 51.5625 C-32 52 -32 52 -34 51 C-34 44.07 -34 37.14 -34 30 C-33.34 30 -32.68 30 -32 30 C-30.14868517 33.92857754 -29.77995057 36.98775112 -29.875 41.3125 C-29.89304687 42.38113281 -29.91109375 43.44976562 -29.9296875 44.55078125 C-29.96449219 45.76314453 -29.96449219 45.76314453 -30 47 C-28.515 46.505 -28.515 46.505 -27 46 C-27 46.66 -27 47.32 -27 48 C-25.68 48.33 -24.36 48.66 -23 49 C-23 50.32 -23 51.64 -23 53 C-20.59454362 54.20272819 -19.05003047 54.10071472 -16.375 54.0625 C-15.14910156 54.04896484 -15.14910156 54.04896484 -13.8984375 54.03515625 C-13.27195312 54.02355469 -12.64546875 54.01195312 -12 54 C-11.67 53.01 -11.34 52.02 -11 51 C-11.9590625 50.814375 -11.9590625 50.814375 -12.9375 50.625 C-13.618125 50.41875 -14.29875 50.2125 -15 50 C-15.33 49.34 -15.66 48.68 -16 48 C-15.14535156 47.87882812 -14.29070312 47.75765625 -13.41015625 47.6328125 C-11.75306641 47.38144531 -11.75306641 47.38144531 -10.0625 47.125 C-8.96035156 46.96257812 -7.85820312 46.80015625 -6.72265625 46.6328125 C-5.82417969 46.42398438 -4.92570312 46.21515625 -4 46 C-3.67 45.34 -3.34 44.68 -3 44 C-2.34 44.33 -1.68 44.66 -1 45 C-1.08378906 44.22914063 -1.16757813 43.45828125 -1.25390625 42.6640625 C-1.40666016 41.15972656 -1.40666016 41.15972656 -1.5625 39.625 C-1.71912109 38.12839844 -1.71912109 38.12839844 -1.87890625 36.6015625 C-2 34 -2 34 -1 32 C-0.84391977 29.59439727 -0.74195542 27.21297228 -0.68359375 24.8046875 C-0.66281265 24.09724396 -0.64203156 23.38980042 -0.62062073 22.66091919 C-0.55518922 20.39904575 -0.49627026 18.13705538 -0.4375 15.875 C-0.39430867 14.34243578 -0.35069418 12.80988343 -0.30664062 11.27734375 C-0.19951445 7.51834927 -0.0982291 3.75923708 0 0 Z " fill="#F1F2F2" transform="translate(136,86)"/>
<path d="M0 0 C3.0625 1.5 3.0625 1.5 5 4 C6.32871606 8.0028616 6.4277483 10.96439885 4.8125 14.875 C1.69672318 18.52797972 -0.1031834 18.92882408 -4.9375 19.3125 C-8.69788192 19.2074614 -11.03651691 18.44051549 -14 16 C-16.0691993 13.36647362 -15.99930722 11.9618969 -15.9375 8.5625 C-13.67415075 -0.03822714 -8.03104724 -1.38466332 0 0 Z " fill="#F4F8F8" transform="translate(248,183)"/>
<path d="M0 0 C5.28 0 10.56 0 16 0 C16 1.65 16 3.3 16 5 C14.68 5 13.36 5 12 5 C12.33 5.66 12.66 6.32 13 7 C13.06950541 8.54023996 13.08452357 10.08334988 13.0625 11.625 C13.05347656 12.44226563 13.04445313 13.25953125 13.03515625 14.1015625 C13.02355469 14.72804688 13.01195312 15.35453125 13 16 C13.66 16 14.32 16 15 16 C15.66 18.64 16.32 21.28 17 24 C8.42 24 -0.16 24 -9 24 C-9 23.01 -9 22.02 -9 21 C-8.28972656 20.82984375 -7.57945312 20.6596875 -6.84765625 20.484375 C-5.92855469 20.24203125 -5.00945312 19.9996875 -4.0625 19.75 C-3.14597656 19.51796875 -2.22945313 19.2859375 -1.28515625 19.046875 C-0.53105469 18.70140625 0.22304688 18.3559375 1 18 C1.74067647 15.99656798 1.74067647 15.99656798 2 14 C2.66 13.67 3.32 13.34 4 13 C4.46523063 11.10466658 4.46523063 11.10466658 4.625 8.9375 C4.74875 7.638125 4.8725 6.33875 5 5 C3.35 5 1.7 5 0 5 C0 3.35 0 1.7 0 0 Z " fill="#FC9383" transform="translate(304,319)"/>
<path d="M0 0 C5.28 0 10.56 0 16 0 C16 1.65 16 3.3 16 5 C15.01 5.33 14.02 5.66 13 6 C13 9.3 13 12.6 13 16 C13.66 16 14.32 16 15 16 C15.66 18.64 16.32 21.28 17 24 C8.42 24 -0.16 24 -9 24 C-9 23.01 -9 22.02 -9 21 C-8.00419922 20.70996094 -8.00419922 20.70996094 -6.98828125 20.4140625 C-0.40210691 18.47248648 -0.40210691 18.47248648 6 16 C5.835 15.484375 5.67 14.96875 5.5 14.4375 C4.84951 11.26636124 4.9379266 8.22781666 5 5 C3.35 5 1.7 5 0 5 C0 3.35 0 1.7 0 0 Z " fill="#FA9384" transform="translate(271,319)"/>
<path d="M0 0 C2.9375 1.5625 2.9375 1.5625 5 4 C5.8125 7.75 5.8125 7.75 6 11 C0.06 11.495 0.06 11.495 -6 12 C-6 12.66 -6 13.32 -6 14 C-5.319375 13.835 -4.63875 13.67 -3.9375 13.5 C-0.5835178 12.92910941 2.60389805 12.93340977 6 13 C4.63016497 16.16115776 4.0109362 16.9927092 1 19 C-4.28019692 19.77649955 -8.61172365 19.87107535 -13.1875 17 C-15.50367865 13.16632499 -15.97134058 10.37103261 -15 6 C-11.31979894 0.03553622 -6.77230142 -0.92409571 0 0 Z " fill="#F6F9F9" transform="translate(200,186)"/>
<path d="M0 0 C1.18443695 0.00141495 2.3688739 0.0028299 3.58920288 0.00428772 C7.33814111 0.00984416 11.0870176 0.02238843 14.8359375 0.03515625 C17.39192622 0.04017688 19.94791588 0.0447388 22.50390625 0.04882812 C28.73960408 0.05979929 34.97526637 0.07649349 41.2109375 0.09765625 C41.2109375 1.41765625 41.2109375 2.73765625 41.2109375 4.09765625 C34.7759375 3.60265625 34.7759375 3.60265625 28.2109375 3.09765625 C28.2109375 14.64765625 28.2109375 26.19765625 28.2109375 38.09765625 C27.8809375 38.09765625 27.5509375 38.09765625 27.2109375 38.09765625 C27.2109375 26.54765625 27.2109375 14.99765625 27.2109375 3.09765625 C20.48850799 3.31576214 20.48850799 3.31576214 14.2109375 5.09765625 C14.2109375 4.43765625 14.2109375 3.77765625 14.2109375 3.09765625 C2.0009375 3.09765625 -10.2090625 3.09765625 -22.7890625 3.09765625 C-22.7890625 6.06765625 -22.7890625 9.03765625 -22.7890625 12.09765625 C-21.7990625 12.42765625 -20.8090625 12.75765625 -19.7890625 13.09765625 C-21.4390625 12.76765625 -23.0890625 12.43765625 -24.7890625 12.09765625 C-24.4590625 9.45765625 -24.1290625 6.81765625 -23.7890625 4.09765625 C-51.5090625 4.09765625 -79.2290625 4.09765625 -107.7890625 4.09765625 C-107.7890625 3.76765625 -107.7890625 3.43765625 -107.7890625 3.09765625 C-106.73892471 3.08734879 -105.68878693 3.07704132 -104.60682678 3.06642151 C-94.7325454 2.96886084 -84.85832948 2.86614367 -74.9841547 2.75831699 C-69.90718366 2.70304351 -64.83020691 2.64961658 -59.75317383 2.6003418 C-54.85780587 2.55276334 -49.96251029 2.50042317 -45.06722832 2.4447155 C-43.19525379 2.4242623 -41.3232594 2.40555424 -39.45125008 2.38858223 C-36.83860174 2.36460357 -34.22609153 2.33454051 -31.61352539 2.30297852 C-30.83165863 2.29722305 -30.04979187 2.29146759 -29.24423218 2.28553772 C-25.72230022 2.55672199 -25.72230022 2.55672199 -22.7890625 1.09765625 C-15.27145412 -0.18415054 -7.59821837 -0.03471811 0 0 Z " fill="#E7E7E7" transform="translate(315.7890625,67.90234375)"/>
<path d="M0 0 C2.31 0.33 4.62 0.66 7 1 C3.61537617 5.68729692 0.24792814 10.04843894 -4 14 C-4.69351563 14.67546875 -5.38703125 15.3509375 -6.1015625 16.046875 C-9.39589539 19.15390468 -12.04442519 21.63940573 -16.3125 23.25 C-19 23 -19 23 -21.25 21.375 C-24.77861295 16.58616813 -25.23218856 12.92080834 -25 7 C-23.68 6.34 -22.36 5.68 -21 5 C-19.35 8.63 -17.7 12.26 -16 16 C-9.04498517 11.52891904 -3.80609405 7.46579986 0 0 Z " fill="#F6C3BD" transform="translate(161,147)"/>
<path d="M0 0 C6.46434522 1.20266888 13.25232946 2.59350613 17.625 7.8125 C18.94824888 11.15954129 18.60471564 13.06044136 17.6875 16.5 C17.3575 17.16 17.0275 17.82 16.6875 18.5 C13.1875 19.1875 13.1875 19.1875 9.6875 19.5 C8.6875 18.5 8.6875 18.5 8.5625 15.5625 C8.6875 12.5 8.6875 12.5 9.6875 10.5 C9.0275 10.17 8.3675 9.84 7.6875 9.5 C7.3575 10.16 7.0275 10.82 6.6875 11.5 C5.73037109 11.2834375 5.73037109 11.2834375 4.75390625 11.0625 C3.92761719 10.876875 3.10132813 10.69125 2.25 10.5 C1.42628906 10.314375 0.60257812 10.12875 -0.24609375 9.9375 C-2.12351689 9.46547853 -2.12351689 9.46547853 -3.3125 9.5 C-4.3025 10.16 -5.2925 10.82 -6.3125 11.5 C-6.72701116 7.97665512 -6.26636636 6.40944137 -4.625 3.1875 C-2.3125 0.5 -2.3125 0.5 0 0 Z " fill="#293238" transform="translate(288.3125,78.5)"/>
<path d="M0 0 C0 2.64 0 5.28 0 8 C-10.56 8 -21.12 8 -32 8 C-29.36048527 2.72097054 -29.36048527 2.72097054 -27 1 C-24.1015625 0.48828125 -24.1015625 0.48828125 -20.625 0.3125 C-19.3875 0.24804688 -18.15 0.18359375 -16.875 0.1171875 C-11.247512 -0.05299863 -5.62920776 -0.08415759 0 0 Z " fill="#FBFCFC" transform="translate(197,239)"/>
<path d="M0 0 C2.31 0 4.62 0 7 0 C8.16711095 8.66996704 8.09744014 17.27369392 8 26 C5.69 26 3.38 26 1 26 C-0.01286753 17.30019136 -0.10621544 8.74507107 0 0 Z " fill="#F4F8F8" transform="translate(221,177)"/>
<path d="M0 0 C2.31 0 4.62 0 7 0 C8.01286753 8.69980864 8.10621544 17.25492893 8 26 C5.69 26 3.38 26 1 26 C0.20354316 17.31008699 -0.12852505 8.72542301 0 0 Z " fill="#F7F9F9" transform="translate(209,178)"/>
<path d="M0 0 C20.46 0 40.92 0 62 0 C61.67 0.99 61.34 1.98 61 3 C40.87 3 20.74 3 0 3 C0 2.01 0 1.02 0 0 Z " fill="#F4F4F4" transform="translate(293,66)"/>
<path d="M0 0 C-2.30015944 6.57188413 -7.39295965 10.13593765 -13 14 C-13.99 14.33 -14.98 14.66 -16 15 C-16.70133599 13.42274653 -17.385583 11.83788667 -18.0625 10.25 C-18.44535156 9.36828125 -18.82820312 8.4865625 -19.22265625 7.578125 C-20.04600008 4.84743691 -19.9773992 3.63098653 -19 1 C-12.65758005 -0.15316726 -6.43311296 -0.09507063 0 0 Z " fill="#104D4A" transform="translate(160,149)"/>
<path d="M0 0 C4.20798179 3.8244124 3.89112412 7.81186028 4.16015625 13.21875 C4.34730084 20.70453361 3.70919776 27.00123912 1 34 C-3.86465305 24.67948828 -4.50012825 14.28834382 -1.5 4.25 C-1.01688253 2.82748745 -0.52339804 1.40818995 0 0 Z " fill="#EEF0F0" transform="translate(101,155)"/>
<path d="M0 0 C0.66 0 1.32 0 2 0 C2 17.49 2 34.98 2 53 C-2 52 -2 52 -5 51 C-5 49.68 -5 48.36 -5 47 C-5.66 46.67 -6.32 46.34 -7 46 C-6.01 46 -5.02 46 -4 46 C-3.67 45.34 -3.34 44.68 -3 44 C-2.34 44.33 -1.68 44.66 -1 45 C-1.08378906 44.22914063 -1.16757813 43.45828125 -1.25390625 42.6640625 C-1.35574219 41.66117188 -1.45757812 40.65828125 -1.5625 39.625 C-1.66691406 38.62726563 -1.77132812 37.62953125 -1.87890625 36.6015625 C-2 34 -2 34 -1 32 C-0.84391977 29.59439727 -0.74195542 27.21297228 -0.68359375 24.8046875 C-0.66281265 24.09724396 -0.64203156 23.38980042 -0.62062073 22.66091919 C-0.55518922 20.39904575 -0.49627026 18.13705538 -0.4375 15.875 C-0.39430867 14.34243578 -0.35069418 12.80988343 -0.30664062 11.27734375 C-0.19951445 7.51834927 -0.0982291 3.75923708 0 0 Z " fill="#E6E6E6" transform="translate(136,86)"/>
<path d="M0 0 C1.49080078 0.02707031 1.49080078 0.02707031 3.01171875 0.0546875 C3.77097656 0.07789063 4.53023438 0.10109375 5.3125 0.125 C5.9725 2.765 6.6325 5.405 7.3125 8.125 C-1.2675 8.125 -9.8475 8.125 -18.6875 8.125 C-18.6875 7.135 -18.6875 6.145 -18.6875 5.125 C-18.00042969 4.93164062 -17.31335938 4.73828125 -16.60546875 4.5390625 C-15.70441406 4.27867187 -14.80335938 4.01828125 -13.875 3.75 C-12.98167969 3.49476563 -12.08835937 3.23953125 -11.16796875 2.9765625 C-2.3375 -0.055 -2.3375 -0.055 0 0 Z " fill="#243137" transform="translate(313.6875,334.875)"/>
<path d="M0 0 C1.49080078 0.02707031 1.49080078 0.02707031 3.01171875 0.0546875 C3.77097656 0.07789063 4.53023438 0.10109375 5.3125 0.125 C5.9725 2.765 6.6325 5.405 7.3125 8.125 C-1.2675 8.125 -9.8475 8.125 -18.6875 8.125 C-18.6875 7.135 -18.6875 6.145 -18.6875 5.125 C-18.00042969 4.93164062 -17.31335938 4.73828125 -16.60546875 4.5390625 C-15.70441406 4.27867187 -14.80335938 4.01828125 -13.875 3.75 C-12.98167969 3.49476563 -12.08835937 3.23953125 -11.16796875 2.9765625 C-2.3375 -0.055 -2.3375 -0.055 0 0 Z " fill="#233036" transform="translate(280.6875,334.875)"/>
<path d="M0 0 C1.92089844 0.37475586 1.92089844 0.37475586 4 1 C7.48578063 6.51915266 8.85437932 12.59215508 8 19 C5.98497111 22.75212276 4.54533858 24.63644095 1 27 C0.11097088 20.95180188 -0.12348383 15.10776514 -0.0625 9 C-0.05798828 8.12988281 -0.05347656 7.25976562 -0.04882812 6.36328125 C-0.0371736 4.24215707 -0.01924357 2.1210689 0 0 Z " fill="#F0F0F0" transform="translate(310,150)"/>
<path d="M0 0 C9.9609375 -0.1953125 9.9609375 -0.1953125 13 0 C15 2 15 2 15.1953125 3.9453125 C15.13020833 5.96354167 15.06510417 7.98177083 15 10 C10.71 10 6.42 10 2 10 C1.67 8.68 1.34 7.36 1 6 C1 9.63 1 13.26 1 17 C0.67 17 0.34 17 0 17 C0 11.39 0 5.78 0 0 Z " fill="#CAD3D2" transform="translate(137,242)"/>
<path d="M0 0 C10.23892571 -0.53679805 10.23892571 -0.53679805 15 3 C16.65369357 3.69822617 18.31727014 4.37498605 20 5 C19.67 5.99 19.34 6.98 19 8 C12.73 8 6.46 8 0 8 C0 5.36 0 2.72 0 0 Z " fill="#303B41" transform="translate(119,336)"/>
<path d="M0 0 C0 0.99 0 1.98 0 3 C0.97850195 4.02104551 1.97980427 5.0206121 3 6 C3.33 6.99 3.66 7.98 4 9 C4.66 9 5.32 9 6 9 C6 9.66 6 10.32 6 11 C0.06 11 -5.88 11 -12 11 C-12 10.01 -12 9.02 -12 8 C-11.34 7.67 -10.68 7.34 -10 7 C-10 5.68 -10 4.36 -10 3 C-7.5880432 -0.97263473 -4.25144817 -0.24064801 0 0 Z " fill="#FDFEFE" transform="translate(239,236)"/>
<path d="M0 0 C2.64 0 5.28 0 8 0 C8 5.61 8 11.22 8 17 C6.02 17 4.04 17 2 17 C0.7017874 11.23918159 -0.25706972 5.91260345 0 0 Z " fill="#F2F6F6" transform="translate(256,175)"/>
<path d="M0 0 C5.63336178 1.62741563 7.78741169 2.88919812 10.6875 7.9375 C12 11 12 11 12 15 C8.04093183 13.56691865 4.71281819 11.66858051 1.1875 9.375 C0.21167969 8.74335938 -0.76414062 8.11171875 -1.76953125 7.4609375 C-2.87361328 6.73777344 -2.87361328 6.73777344 -4 6 C-2.84826645 3.53199953 -1.95216435 1.95216435 0 0 Z " fill="#2B373D" transform="translate(74,314)"/>
<path d="M0 0 C3.46679688 0.04882812 3.46679688 0.04882812 6.93359375 0.09765625 C6.60359375 4.38765625 6.27359375 8.67765625 5.93359375 13.09765625 C2.30359375 13.09765625 -1.32640625 13.09765625 -5.06640625 13.09765625 C-2.31640625 8.22265625 -2.31640625 8.22265625 -0.06640625 7.09765625 C-0.63985562 4.23040939 -0.92785775 3.23620475 -3.06640625 1.09765625 C-2.06640625 0.09765625 -2.06640625 0.09765625 0 0 Z " fill="#FEFEFE" transform="translate(262.06640625,233.90234375)"/>
<path d="M0 0 C2.5 0.0625 2.5 0.0625 5 1 C6.125 3.5 6.125 3.5 7 6 C7.99 6.33 8.98 6.66 10 7 C9.67 8.32 9.34 9.64 9 11 C7.5629191 11.05422947 6.12524538 11.09289723 4.6875 11.125 C3.88699219 11.14820313 3.08648437 11.17140625 2.26171875 11.1953125 C0 11 0 11 -3 9 C-2.25 2.25 -2.25 2.25 0 0 Z " fill="#FCC2BC" transform="translate(115,130)"/>
<path d="M0 0 C5.28 0 10.56 0 16 0 C16 1.65 16 3.3 16 5 C10.72 5 5.44 5 0 5 C0 3.35 0 1.7 0 0 Z " fill="#10625E" transform="translate(304,319)"/>
<path d="M0 0 C5.28 0 10.56 0 16 0 C16 1.65 16 3.3 16 5 C10.72 5 5.44 5 0 5 C0 3.35 0 1.7 0 0 Z " fill="#11625E" transform="translate(271,319)"/>
<path d="M0 0 C0.99 0 1.98 0 3 0 C3.8655047 2.26708325 4.71759315 4.53775079 5.5625 6.8125 C5.80935547 7.45509766 6.05621094 8.09769531 6.31054688 8.75976562 C8.11328125 13.66015625 8.11328125 13.66015625 7 17 C4 16 4 16 2.5625 13.1875 C2.046875 12.135625 1.53125 11.08375 1 10 C-1.06167261 7.68581709 -1.06167261 7.68581709 -3 6 C-2.01 4.02 -1.02 2.04 0 0 Z " fill="#F5F7F7" transform="translate(288,134)"/>
<path d="M0 0 C2.64 0 5.28 0 8 0 C8.33 1.98 8.66 3.96 9 6 C9.99 6.33 10.98 6.66 12 7 C11.67 7.99 11.34 8.98 11 10 C10.34 9.67 9.68 9.34 9 9 C7.46331135 8.77532169 5.92031946 8.59203195 4.375 8.4375 C3.55773437 8.35371094 2.74046875 8.26992188 1.8984375 8.18359375 C1.27195312 8.12300781 0.64546875 8.06242187 0 8 C0 5.36 0 2.72 0 0 Z " fill="#E4BFBB" transform="translate(120,328)"/>
<path d="M0 0 C0 2.97 0 5.94 0 9 C-2.64 9 -5.28 9 -8 9 C-8 6.36 -8 3.72 -8 1 C-5.29120665 -0.35439668 -2.99066732 -0.06501451 0 0 Z " fill="#FEFEFE" transform="translate(207,238)"/>
<path d="M0 0 C2.97 0 5.94 0 9 0 C9 2.31 9 4.62 9 7 C6.03 7 3.06 7 0 7 C0 4.69 0 2.38 0 0 Z " fill="#FDFDFD" transform="translate(198,72)"/>
<path d="M0 0 C1.15418833 3.46256498 0.96347296 5.80866156 0.6875 9.4375 C0.56955078 11.13712891 0.56955078 11.13712891 0.44921875 12.87109375 C0.0384724 15.73203138 -0.5255516 17.55061022 -2 20 C-3.51233701 13.53205867 -4.21432579 7.64409958 -4 1 C-2.68 0.67 -1.36 0.34 0 0 Z " fill="#859F9E" transform="translate(290,231)"/>
<path d="M0 0 C0.33 0 0.66 0 1 0 C1.66 5.61 2.32 11.22 3 17 C2.34 17 1.68 17 1 17 C1 25.25 1 33.5 1 42 C0.67 42 0.34 42 0 42 C0 38.37 0 34.74 0 31 C-1.32 30.67 -2.64 30.34 -4 30 C-2.68 30 -1.36 30 0 30 C0 20.1 0 10.2 0 0 Z " fill="#E4E5E5" transform="translate(292,249)"/>
<path d="M0 0 C1.875 0.99609375 1.875 0.99609375 4 2.4375 C6.76381254 4.46200158 6.76381254 4.46200158 10 5 C10.33 5.99 10.66 6.98 11 8 C9.296875 9.1171875 9.296875 9.1171875 7 10 C4.640625 9.3203125 4.640625 9.3203125 2.25 8.125 C1.05117187 7.54105469 1.05117187 7.54105469 -0.171875 6.9453125 C-0.77515625 6.63335937 -1.3784375 6.32140625 -2 6 C-2 4.35 -2 2.7 -2 1 C-1.34 0.67 -0.68 0.34 0 0 Z " fill="#1C6965" transform="translate(79,302)"/>
<path d="M0 0 C0.33 1.65 0.66 3.3 1 5 C-3.29 5 -7.58 5 -12 5 C-12 3.68 -12 2.36 -12 1 C-7.93631321 0.22596442 -4.13574827 -0.0984702 0 0 Z " fill="#FBFBFB" transform="translate(150,242)"/>
<path d="M0 0 C0.66 0.99 1.32 1.98 2 3 C1.41508789 3.02505615 0.83017578 3.0501123 0.22753906 3.07592773 C-2.43184471 3.19222962 -5.09090403 3.31480067 -7.75 3.4375 C-9.13058594 3.49647461 -9.13058594 3.49647461 -10.5390625 3.55664062 C-11.42851562 3.59853516 -12.31796875 3.64042969 -13.234375 3.68359375 C-14.45979004 3.73858032 -14.45979004 3.73858032 -15.70996094 3.79467773 C-17.9034423 3.99134275 -19.88396413 4.40300594 -22 5 C-21.67 3.68 -21.34 2.36 -21 1 C-18.81274749 0.83011631 -16.62518299 0.66424731 -14.4375 0.5 C-12.61025391 0.36078125 -12.61025391 0.36078125 -10.74609375 0.21875 C-3.2030543 -0.22171946 -3.2030543 -0.22171946 0 0 Z " fill="#D1D7D7" transform="translate(260,234)"/>
<path d="M0 0 C1.67542976 0.28604898 3.34385343 0.61781233 5 1 C5.625 3.875 5.625 3.875 6 7 C5.34 7.66 4.68 8.32 4 9 C1.375 8.625 1.375 8.625 -1 8 C-1.04241723 5.66705225 -1.04092937 3.33297433 -1 1 C-0.67 0.67 -0.34 0.34 0 0 Z " fill="#125E5A" transform="translate(241,188)"/>
<path d="M0 0 C0.99 0 1.98 0 3 0 C3 5.94 3 11.88 3 18 C2.01 18 1.02 18 0 18 C0 12.06 0 6.12 0 0 Z " fill="#ECECEC" transform="translate(313,185)"/>
<path d="M0 0 C12.21 0 24.42 0 37 0 C37 0.33 37 0.66 37 1 C19.675 1.495 19.675 1.495 2 2 C1.67 3.32 1.34 4.64 1 6 C0.34 5.01 -0.32 4.02 -1 3 C-0.67 2.01 -0.34 1.02 0 0 Z " fill="#D1D7D6" transform="translate(83,316)"/>
<path d="M0 0 C0.66 0.66 1.32 1.32 2 2 C1.67 2.99 1.34 3.98 1 5 C-2.63 5 -6.26 5 -10 5 C-10 3.68 -10 2.36 -10 1 C-8.37675914 0.77837671 -6.751279 0.57310197 -5.125 0.375 C-4.22007813 0.25898438 -3.31515625 0.14296875 -2.3828125 0.0234375 C-1.59648438 0.01570313 -0.81015625 0.00796875 0 0 Z " fill="#286F6B" transform="translate(129,323)"/>
<path d="M0 0 C3.465 1.485 3.465 1.485 7 3 C5.86695008 6.39914975 4.87481525 7.05254451 2 9 C0.02 8.01 -1.96 7.02 -4 6 C-3.01 5.67 -2.02 5.34 -1 5 C-0.67 3.35 -0.34 1.7 0 0 Z " fill="#EFBEB9" transform="translate(78,308)"/>
<path d="M0 0 C2.31 0 4.62 0 7 0 C7 1.98 7 3.96 7 6 C4.69 6 2.38 6 0 6 C0 4.02 0 2.04 0 0 Z " fill="#FBFCFC" transform="translate(258,194)"/>
<path d="M0 0 C1.32 0 2.64 0 4 0 C3.5547115 5.27315333 2.91626837 10.01770224 1 15 C0.67 15 0.34 15 0 15 C0 10.05 0 5.1 0 0 Z " fill="#CCCCCC" transform="translate(156,182)"/>
<path d="M0 0 C0.66 0 1.32 0 2 0 C2 2.64 2 5.28 2 8 C5.63 8.33 9.26 8.66 13 9 C13 9.33 13 9.66 13 10 C11.04310341 10.22142255 9.08438048 10.4267568 7.125 10.625 C5.48917969 10.79902344 5.48917969 10.79902344 3.8203125 10.9765625 C2.42425781 10.98816406 2.42425781 10.98816406 1 11 C-1.40820361 8.59179639 -1.68097423 7.34977063 -2 4 C-1.0625 1.6875 -1.0625 1.6875 0 0 Z " fill="#F0F1F1" transform="translate(102,282)"/>
<path d="M0 0 C3.40100748 4.53467664 3.33913116 5.7912782 3.1875 11.25 C3.16042969 12.51328125 3.13335937 13.7765625 3.10546875 15.078125 C3.07066406 16.04234375 3.03585937 17.0065625 3 18 C2.01 17.67 1.02 17.34 0 17 C0 11.39 0 5.78 0 0 Z " fill="#E3E3E2" transform="translate(280,103)"/>
<path d="M0 0 C3.3 0 6.6 0 10 0 C10 0.99 10 1.98 10 3 C6.7 3 3.4 3 0 3 C0 2.01 0 1.02 0 0 Z " fill="#222C33" transform="translate(120,179)"/>
<path d="M0 0 C3.3 0 6.6 0 10 0 C9.67 0.99 9.34 1.98 9 3 C5.7 3 2.4 3 -1 3 C-0.67 2.01 -0.34 1.02 0 0 Z " fill="#222C33" transform="translate(109,179)"/>
<path d="M0 0 C1.9375 0.3125 1.9375 0.3125 4 1 C4.33 1.99 4.66 2.98 5 4 C4.67 4.66 4.34 5.32 4 6 C2.35 5.67 0.7 5.34 -1 5 C-0.67 3.35 -0.34 1.7 0 0 Z " fill="#E0E0E0" transform="translate(248,294)"/>
<path d="M0 0 C2.125 0.375 2.125 0.375 4 1 C3.67 2.65 3.34 4.3 3 6 C1.68 6 0.36 6 -1 6 C-1.625 4.125 -1.625 4.125 -2 2 C-1.34 1.34 -0.68 0.68 0 0 Z " fill="#E0E0E0" transform="translate(199,294)"/>
<path d="M0 0 C2.0625 0.4375 2.0625 0.4375 4 1 C3.67 2.65 3.34 4.3 3 6 C1.35 5.67 -0.3 5.34 -2 5 C-1.125 1.125 -1.125 1.125 0 0 Z " fill="#DFDFDF" transform="translate(150,294)"/>
<path d="M0 0 C1.65 0.33 3.3 0.66 5 1 C4.67 2.65 4.34 4.3 4 6 C2.0625 5.6875 2.0625 5.6875 0 5 C-0.33 4.01 -0.66 3.02 -1 2 C-0.67 1.34 -0.34 0.68 0 0 Z " fill="#E0E0E0" transform="translate(198,263)"/>
<path d="M0 0 C1.32 0 2.64 0 4 0 C4.33 1.32 4.66 2.64 5 4 C3.125 5.0625 3.125 5.0625 1 6 C0.34 5.67 -0.32 5.34 -1 5 C-0.67 3.35 -0.34 1.7 0 0 Z " fill="#E0E0E0" transform="translate(248,263)"/>
<path d="M0 0 C1.67542976 0.28604898 3.34385343 0.61781233 5 1 C4.67 2.32 4.34 3.64 4 5 C2.68 5 1.36 5 0 5 C-0.5625 3.0625 -0.5625 3.0625 -1 1 C-0.67 0.67 -0.34 0.34 0 0 Z " fill="#DFDFDF" transform="translate(149,263)"/>
<path d="M0 0 C2.31 0 4.62 0 7 0 C7 1.32 7 2.64 7 4 C5.02 4 3.04 4 1 4 C0.67 2.68 0.34 1.36 0 0 Z " fill="#DB7466" transform="translate(309,324)"/>
<path d="M0 0 C-1.6875 2.0625 -1.6875 2.0625 -4 4 C-6.6875 3.875 -6.6875 3.875 -9 3 C-9.33 2.34 -9.66 1.68 -10 1 C-6.78548731 -0.60725635 -3.56387464 -0.05748185 0 0 Z " fill="#226763" transform="translate(202,197)"/>
<path d="M0 0 C1.98 0 3.96 0 6 0 C6 1.32 6 2.64 6 4 C4.02 4 2.04 4 0 4 C0 2.68 0 1.36 0 0 Z " fill="#D87265" transform="translate(277,324)"/>
<path d="M0 0 C0.33 0.99 0.66 1.98 1 3 C2.32 2.67 3.64 2.34 5 2 C3.02 4.97 3.02 4.97 1 8 C0.67 7.34 0.34 6.68 0 6 C-0.99 5.67 -1.98 5.34 -3 5 C-2.01 3.35 -1.02 1.7 0 0 Z " fill="#F0C3BD" transform="translate(121,108)"/>
<path d="M0 0 C1.9375 0.3125 1.9375 0.3125 4 1 C4.33 1.99 4.66 2.98 5 4 C2.69 4 0.38 4 -2 4 C-1.34 2.68 -0.68 1.36 0 0 Z " fill="#1A605C" transform="translate(194,190)"/>
<path d="M0 0 C0.33 0 0.66 0 1 0 C1 1.98 1 3.96 1 6 C-0.98 6.99 -0.98 6.99 -3 8 C-3 6.68 -3 5.36 -3 4 C-2.34 3.67 -1.68 3.34 -1 3 C-0.67 2.01 -0.34 1.02 0 0 Z " fill="#BEC4C2" transform="translate(309,329)"/>
<path d="M0 0 C0.66 0.66 1.32 1.32 2 2 C-0.31 4.31 -2.62 6.62 -5 9 C-5.66 8.67 -6.32 8.34 -7 8 C-4.69 5.36 -2.38 2.72 0 0 Z " fill="#E5EBEB" transform="translate(162,248)"/>
<path d="M0 0 C4.55384615 -0.36923077 4.55384615 -0.36923077 6.8125 1.5 C7.204375 1.995 7.59625 2.49 8 3 C5.36 3 2.72 3 0 3 C0 2.01 0 1.02 0 0 Z " fill="#1D282E" transform="translate(295,340)"/>
<path d="M0 0 C4.55384615 -0.36923077 4.55384615 -0.36923077 6.8125 1.5 C7.204375 1.995 7.59625 2.49 8 3 C5.36 3 2.72 3 0 3 C0 2.01 0 1.02 0 0 Z " fill="#1D292F" transform="translate(262,340)"/>
</svg>
